<mxfile host="app.diagrams.net" modified="2022-12-23T07:50:48.339Z" agent="5.0 (Macintosh; Intel Mac OS X 10_15_7) AppleWebKit/537.36 (KHTML, like Gecko) Chrome/108.0.0.0 Safari/537.36" etag="BGotu0E9Ge1yEhYzYvkC" version="20.7.4" type="github">
  <diagram id="C5RBs43oDa-KdzZeNtuy" name="Garage Map App - DB Diagram">
    <mxGraphModel dx="2363" dy="1505" grid="1" gridSize="10" guides="1" tooltips="1" connect="1" arrows="1" fold="1" page="1" pageScale="1" pageWidth="827" pageHeight="1169" math="0" shadow="0">
      <root>
        <mxCell id="WIyWlLk6GJQsqaUBKTNV-0" />
        <mxCell id="WIyWlLk6GJQsqaUBKTNV-1" parent="WIyWlLk6GJQsqaUBKTNV-0" />
        <mxCell id="zkfFHV4jXpPFQw0GAbJ--0" value="Users" style="swimlane;fontStyle=2;align=center;verticalAlign=top;childLayout=stackLayout;horizontal=1;startSize=26;horizontalStack=0;resizeParent=1;resizeLast=0;collapsible=1;marginBottom=0;rounded=1;shadow=0;strokeWidth=1;labelBackgroundColor=none;fillColor=#F2CC8F;strokeColor=#E07A5F;fontColor=#393C56;" parent="WIyWlLk6GJQsqaUBKTNV-1" vertex="1">
          <mxGeometry x="89.99999999999994" y="300" width="160" height="260" as="geometry">
            <mxRectangle x="-830" y="60" width="160" height="26" as="alternateBounds" />
          </mxGeometry>
        </mxCell>
        <mxCell id="zkfFHV4jXpPFQw0GAbJ--1" value="ID" style="text;align=left;verticalAlign=top;spacingLeft=4;spacingRight=4;overflow=hidden;rotatable=0;points=[[0,0.5],[1,0.5]];portConstraint=eastwest;rounded=1;labelBackgroundColor=none;fontColor=#393C56;" parent="zkfFHV4jXpPFQw0GAbJ--0" vertex="1">
          <mxGeometry y="26" width="160" height="26" as="geometry" />
        </mxCell>
        <mxCell id="zkfFHV4jXpPFQw0GAbJ--2" value="Firstname" style="text;align=left;verticalAlign=top;spacingLeft=4;spacingRight=4;overflow=hidden;rotatable=0;points=[[0,0.5],[1,0.5]];portConstraint=eastwest;rounded=1;shadow=0;html=0;labelBackgroundColor=none;fontColor=#393C56;" parent="zkfFHV4jXpPFQw0GAbJ--0" vertex="1">
          <mxGeometry y="52" width="160" height="26" as="geometry" />
        </mxCell>
        <mxCell id="zkfFHV4jXpPFQw0GAbJ--3" value="Lastname" style="text;align=left;verticalAlign=top;spacingLeft=4;spacingRight=4;overflow=hidden;rotatable=0;points=[[0,0.5],[1,0.5]];portConstraint=eastwest;rounded=1;shadow=0;html=0;labelBackgroundColor=none;fontColor=#393C56;" parent="zkfFHV4jXpPFQw0GAbJ--0" vertex="1">
          <mxGeometry y="78" width="160" height="26" as="geometry" />
        </mxCell>
        <mxCell id="zhhEzy5p5cOylJhgr8vr-0" value="Email Address" style="text;align=left;verticalAlign=top;spacingLeft=4;spacingRight=4;overflow=hidden;rotatable=0;points=[[0,0.5],[1,0.5]];portConstraint=eastwest;rounded=1;shadow=0;html=0;labelBackgroundColor=none;fontColor=#393C56;" parent="zkfFHV4jXpPFQw0GAbJ--0" vertex="1">
          <mxGeometry y="104" width="160" height="30" as="geometry" />
        </mxCell>
        <mxCell id="1j_XflQxe0Tt35u-Hjj--0" value="Phone number" style="text;align=left;verticalAlign=top;spacingLeft=4;spacingRight=4;overflow=hidden;rotatable=0;points=[[0,0.5],[1,0.5]];portConstraint=eastwest;rounded=1;shadow=0;html=0;labelBackgroundColor=none;fontColor=#393C56;" parent="zkfFHV4jXpPFQw0GAbJ--0" vertex="1">
          <mxGeometry y="134" width="160" height="30" as="geometry" />
        </mxCell>
        <mxCell id="1j_XflQxe0Tt35u-Hjj--1" value="Password" style="text;align=left;verticalAlign=top;spacingLeft=4;spacingRight=4;overflow=hidden;rotatable=0;points=[[0,0.5],[1,0.5]];portConstraint=eastwest;rounded=1;shadow=0;html=0;labelBackgroundColor=none;fontColor=#393C56;" parent="zkfFHV4jXpPFQw0GAbJ--0" vertex="1">
          <mxGeometry y="164" width="160" height="30" as="geometry" />
        </mxCell>
        <mxCell id="1j_XflQxe0Tt35u-Hjj--2" value="Token" style="text;align=left;verticalAlign=top;spacingLeft=4;spacingRight=4;overflow=hidden;rotatable=0;points=[[0,0.5],[1,0.5]];portConstraint=eastwest;rounded=1;shadow=0;html=0;labelBackgroundColor=none;fontColor=#393C56;" parent="zkfFHV4jXpPFQw0GAbJ--0" vertex="1">
          <mxGeometry y="194" width="160" height="30" as="geometry" />
        </mxCell>
        <mxCell id="zkfFHV4jXpPFQw0GAbJ--4" value="" style="line;html=1;strokeWidth=1;align=left;verticalAlign=middle;spacingTop=-1;spacingLeft=3;spacingRight=3;rotatable=0;labelPosition=right;points=[];portConstraint=eastwest;rounded=1;labelBackgroundColor=none;fillColor=#F2CC8F;strokeColor=#E07A5F;fontColor=#393C56;" parent="zkfFHV4jXpPFQw0GAbJ--0" vertex="1">
          <mxGeometry y="224" width="160" height="8" as="geometry" />
        </mxCell>
        <mxCell id="_AmsLy0YTMM-9idU5BuL-29" value="" style="edgeStyle=orthogonalEdgeStyle;rounded=1;orthogonalLoop=1;jettySize=auto;html=1;entryX=0.433;entryY=-0.01;entryDx=0;entryDy=0;entryPerimeter=0;labelBackgroundColor=none;strokeColor=#E07A5F;fontColor=default;" parent="WIyWlLk6GJQsqaUBKTNV-1" source="TfA8qvyjhMoh7MB1J778-33" target="_AmsLy0YTMM-9idU5BuL-20" edge="1">
          <mxGeometry relative="1" as="geometry">
            <Array as="points">
              <mxPoint x="111" y="780" />
            </Array>
            <mxPoint x="120" y="780" as="sourcePoint" />
          </mxGeometry>
        </mxCell>
        <mxCell id="_AmsLy0YTMM-9idU5BuL-112" value="" style="edgeStyle=orthogonalEdgeStyle;rounded=1;orthogonalLoop=1;jettySize=auto;html=1;entryX=1.003;entryY=0.761;entryDx=0;entryDy=0;entryPerimeter=0;labelBackgroundColor=none;strokeColor=#E07A5F;fontColor=default;" parent="WIyWlLk6GJQsqaUBKTNV-1" source="zkfFHV4jXpPFQw0GAbJ--18" target="_AmsLy0YTMM-9idU5BuL-100" edge="1">
          <mxGeometry relative="1" as="geometry" />
        </mxCell>
        <mxCell id="zkfFHV4jXpPFQw0GAbJ--17" value="Vehicle" style="swimlane;fontStyle=0;align=center;verticalAlign=top;childLayout=stackLayout;horizontal=1;startSize=26;horizontalStack=0;resizeParent=1;resizeLast=0;collapsible=1;marginBottom=0;rounded=1;shadow=0;strokeWidth=1;labelBackgroundColor=none;fillColor=#F2CC8F;strokeColor=#E07A5F;fontColor=#393C56;" parent="WIyWlLk6GJQsqaUBKTNV-1" vertex="1">
          <mxGeometry x="160" y="630" width="184.62" height="410" as="geometry">
            <mxRectangle x="550" y="140" width="160" height="26" as="alternateBounds" />
          </mxGeometry>
        </mxCell>
        <mxCell id="zkfFHV4jXpPFQw0GAbJ--18" value="Vehicle ID" style="text;align=left;verticalAlign=top;spacingLeft=4;spacingRight=4;overflow=hidden;rotatable=0;points=[[0,0.5],[1,0.5]];portConstraint=eastwest;rounded=1;labelBackgroundColor=none;fontColor=#393C56;" parent="zkfFHV4jXpPFQw0GAbJ--17" vertex="1">
          <mxGeometry y="26" width="184.62" height="26" as="geometry" />
        </mxCell>
        <mxCell id="zkfFHV4jXpPFQw0GAbJ--19" value="Fuel Type ID" style="text;align=left;verticalAlign=top;spacingLeft=4;spacingRight=4;overflow=hidden;rotatable=0;points=[[0,0.5],[1,0.5]];portConstraint=eastwest;rounded=1;shadow=0;html=0;labelBackgroundColor=none;fontColor=#393C56;" parent="zkfFHV4jXpPFQw0GAbJ--17" vertex="1">
          <mxGeometry y="52" width="184.62" height="28" as="geometry" />
        </mxCell>
        <mxCell id="zkfFHV4jXpPFQw0GAbJ--20" value="Brand ID" style="text;align=left;verticalAlign=top;spacingLeft=4;spacingRight=4;overflow=hidden;rotatable=0;points=[[0,0.5],[1,0.5]];portConstraint=eastwest;rounded=1;shadow=0;html=0;labelBackgroundColor=none;fontColor=#393C56;" parent="zkfFHV4jXpPFQw0GAbJ--17" vertex="1">
          <mxGeometry y="80" width="184.62" height="26" as="geometry" />
        </mxCell>
        <mxCell id="_AmsLy0YTMM-9idU5BuL-56" value="Vehicle Type ID" style="text;align=left;verticalAlign=top;spacingLeft=4;spacingRight=4;overflow=hidden;rotatable=0;points=[[0,0.5],[1,0.5]];portConstraint=eastwest;rounded=1;shadow=0;html=0;labelBackgroundColor=none;fontColor=#393C56;" parent="zkfFHV4jXpPFQw0GAbJ--17" vertex="1">
          <mxGeometry y="106" width="184.62" height="26" as="geometry" />
        </mxCell>
        <mxCell id="TfA8qvyjhMoh7MB1J778-33" value="Model ID" style="text;align=left;verticalAlign=top;spacingLeft=4;spacingRight=4;overflow=hidden;rotatable=0;points=[[0,0.5],[1,0.5]];portConstraint=eastwest;rounded=1;shadow=0;html=0;labelBackgroundColor=none;fontColor=#393C56;" parent="zkfFHV4jXpPFQw0GAbJ--17" vertex="1">
          <mxGeometry y="132" width="184.62" height="26" as="geometry" />
        </mxCell>
        <mxCell id="zkfFHV4jXpPFQw0GAbJ--21" value="Model ID" style="text;align=left;verticalAlign=top;spacingLeft=4;spacingRight=4;overflow=hidden;rotatable=0;points=[[0,0.5],[1,0.5]];portConstraint=eastwest;rounded=1;shadow=0;html=0;labelBackgroundColor=none;fontColor=#393C56;" parent="zkfFHV4jXpPFQw0GAbJ--17" vertex="1">
          <mxGeometry y="158" width="184.62" height="26" as="geometry" />
        </mxCell>
        <mxCell id="zkfFHV4jXpPFQw0GAbJ--22" value="Variant ID" style="text;align=left;verticalAlign=top;spacingLeft=4;spacingRight=4;overflow=hidden;rotatable=0;points=[[0,0.5],[1,0.5]];portConstraint=eastwest;rounded=1;shadow=0;html=0;labelBackgroundColor=none;fontColor=#393C56;" parent="zkfFHV4jXpPFQw0GAbJ--17" vertex="1">
          <mxGeometry y="184" width="184.62" height="26" as="geometry" />
        </mxCell>
        <mxCell id="1j_XflQxe0Tt35u-Hjj--4" value="Region ID" style="text;align=left;verticalAlign=top;spacingLeft=4;spacingRight=4;overflow=hidden;rotatable=0;points=[[0,0.5],[1,0.5]];portConstraint=eastwest;rounded=1;shadow=0;html=0;labelBackgroundColor=none;fontColor=#393C56;" parent="zkfFHV4jXpPFQw0GAbJ--17" vertex="1">
          <mxGeometry y="210" width="184.62" height="26" as="geometry" />
        </mxCell>
        <mxCell id="_AmsLy0YTMM-9idU5BuL-124" value="KMS Convered" style="text;align=left;verticalAlign=top;spacingLeft=4;spacingRight=4;overflow=hidden;rotatable=0;points=[[0,0.5],[1,0.5]];portConstraint=eastwest;rounded=1;shadow=0;html=0;labelBackgroundColor=none;fontColor=#393C56;" parent="zkfFHV4jXpPFQw0GAbJ--17" vertex="1">
          <mxGeometry y="236" width="184.62" height="26" as="geometry" />
        </mxCell>
        <mxCell id="1j_XflQxe0Tt35u-Hjj--3" value="Year" style="text;align=left;verticalAlign=top;spacingLeft=4;spacingRight=4;overflow=hidden;rotatable=0;points=[[0,0.5],[1,0.5]];portConstraint=eastwest;rounded=1;shadow=0;html=0;labelBackgroundColor=none;fontColor=#393C56;" parent="zkfFHV4jXpPFQw0GAbJ--17" vertex="1">
          <mxGeometry y="262" width="184.62" height="26" as="geometry" />
        </mxCell>
        <mxCell id="_AmsLy0YTMM-9idU5BuL-93" value="Status" style="text;align=left;verticalAlign=top;spacingLeft=4;spacingRight=4;overflow=hidden;rotatable=0;points=[[0,0.5],[1,0.5]];portConstraint=eastwest;rounded=1;shadow=0;html=0;labelBackgroundColor=none;fontColor=#393C56;" parent="zkfFHV4jXpPFQw0GAbJ--17" vertex="1">
          <mxGeometry y="288" width="184.62" height="26" as="geometry" />
        </mxCell>
        <mxCell id="_AmsLy0YTMM-9idU5BuL-94" value="Create On" style="text;align=left;verticalAlign=top;spacingLeft=4;spacingRight=4;overflow=hidden;rotatable=0;points=[[0,0.5],[1,0.5]];portConstraint=eastwest;rounded=1;shadow=0;html=0;labelBackgroundColor=none;fontColor=#393C56;" parent="zkfFHV4jXpPFQw0GAbJ--17" vertex="1">
          <mxGeometry y="314" width="184.62" height="26" as="geometry" />
        </mxCell>
        <mxCell id="_AmsLy0YTMM-9idU5BuL-95" value="Update On" style="text;align=left;verticalAlign=top;spacingLeft=4;spacingRight=4;overflow=hidden;rotatable=0;points=[[0,0.5],[1,0.5]];portConstraint=eastwest;rounded=1;shadow=0;html=0;labelBackgroundColor=none;fontColor=#393C56;" parent="zkfFHV4jXpPFQw0GAbJ--17" vertex="1">
          <mxGeometry y="340" width="184.62" height="26" as="geometry" />
        </mxCell>
        <mxCell id="zkfFHV4jXpPFQw0GAbJ--23" value="" style="line;html=1;strokeWidth=1;align=left;verticalAlign=middle;spacingTop=-1;spacingLeft=3;spacingRight=3;rotatable=0;labelPosition=right;points=[];portConstraint=eastwest;rounded=1;labelBackgroundColor=none;fillColor=#F2CC8F;strokeColor=#E07A5F;fontColor=#393C56;" parent="zkfFHV4jXpPFQw0GAbJ--17" vertex="1">
          <mxGeometry y="366" width="184.62" height="18" as="geometry" />
        </mxCell>
        <mxCell id="_AmsLy0YTMM-9idU5BuL-1" value="Brand" style="swimlane;fontStyle=0;align=center;verticalAlign=top;childLayout=stackLayout;horizontal=1;startSize=26;horizontalStack=0;resizeParent=1;resizeLast=0;collapsible=1;marginBottom=0;rounded=1;shadow=0;strokeWidth=1;labelBackgroundColor=none;fillColor=#F2CC8F;strokeColor=#E07A5F;fontColor=#393C56;" parent="WIyWlLk6GJQsqaUBKTNV-1" vertex="1">
          <mxGeometry x="510" y="1050" width="184.62" height="240" as="geometry">
            <mxRectangle x="550" y="140" width="160" height="26" as="alternateBounds" />
          </mxGeometry>
        </mxCell>
        <mxCell id="_AmsLy0YTMM-9idU5BuL-2" value="Brand ID" style="text;align=left;verticalAlign=top;spacingLeft=4;spacingRight=4;overflow=hidden;rotatable=0;points=[[0,0.5],[1,0.5]];portConstraint=eastwest;rounded=1;labelBackgroundColor=none;fontColor=#393C56;" parent="_AmsLy0YTMM-9idU5BuL-1" vertex="1">
          <mxGeometry y="26" width="184.62" height="26" as="geometry" />
        </mxCell>
        <mxCell id="_AmsLy0YTMM-9idU5BuL-3" value="Brand Name" style="text;align=left;verticalAlign=top;spacingLeft=4;spacingRight=4;overflow=hidden;rotatable=0;points=[[0,0.5],[1,0.5]];portConstraint=eastwest;rounded=1;shadow=0;html=0;labelBackgroundColor=none;fontColor=#393C56;" parent="_AmsLy0YTMM-9idU5BuL-1" vertex="1">
          <mxGeometry y="52" width="184.62" height="26" as="geometry" />
        </mxCell>
        <mxCell id="_AmsLy0YTMM-9idU5BuL-4" value="Logo" style="text;align=left;verticalAlign=top;spacingLeft=4;spacingRight=4;overflow=hidden;rotatable=0;points=[[0,0.5],[1,0.5]];portConstraint=eastwest;rounded=1;shadow=0;html=0;labelBackgroundColor=none;fontColor=#393C56;" parent="_AmsLy0YTMM-9idU5BuL-1" vertex="1">
          <mxGeometry y="78" width="184.62" height="26" as="geometry" />
        </mxCell>
        <mxCell id="_AmsLy0YTMM-9idU5BuL-6" value="Year " style="text;align=left;verticalAlign=top;spacingLeft=4;spacingRight=4;overflow=hidden;rotatable=0;points=[[0,0.5],[1,0.5]];portConstraint=eastwest;rounded=1;shadow=0;html=0;labelBackgroundColor=none;fontColor=#393C56;" parent="_AmsLy0YTMM-9idU5BuL-1" vertex="1">
          <mxGeometry y="104" width="184.62" height="26" as="geometry" />
        </mxCell>
        <mxCell id="_AmsLy0YTMM-9idU5BuL-7" value="Status" style="text;align=left;verticalAlign=top;spacingLeft=4;spacingRight=4;overflow=hidden;rotatable=0;points=[[0,0.5],[1,0.5]];portConstraint=eastwest;rounded=1;shadow=0;html=0;labelBackgroundColor=none;fontColor=#393C56;" parent="_AmsLy0YTMM-9idU5BuL-1" vertex="1">
          <mxGeometry y="130" width="184.62" height="26" as="geometry" />
        </mxCell>
        <mxCell id="_AmsLy0YTMM-9idU5BuL-8" value="Update On" style="text;align=left;verticalAlign=top;spacingLeft=4;spacingRight=4;overflow=hidden;rotatable=0;points=[[0,0.5],[1,0.5]];portConstraint=eastwest;rounded=1;shadow=0;html=0;labelBackgroundColor=none;fontColor=#393C56;" parent="_AmsLy0YTMM-9idU5BuL-1" vertex="1">
          <mxGeometry y="156" width="184.62" height="26" as="geometry" />
        </mxCell>
        <mxCell id="_AmsLy0YTMM-9idU5BuL-51" value="Create On" style="text;align=left;verticalAlign=top;spacingLeft=4;spacingRight=4;overflow=hidden;rotatable=0;points=[[0,0.5],[1,0.5]];portConstraint=eastwest;rounded=1;shadow=0;html=0;labelBackgroundColor=none;fontColor=#393C56;" parent="_AmsLy0YTMM-9idU5BuL-1" vertex="1">
          <mxGeometry y="182" width="184.62" height="26" as="geometry" />
        </mxCell>
        <mxCell id="_AmsLy0YTMM-9idU5BuL-9" value="" style="line;html=1;strokeWidth=1;align=left;verticalAlign=middle;spacingTop=-1;spacingLeft=3;spacingRight=3;rotatable=0;labelPosition=right;points=[];portConstraint=eastwest;rounded=1;labelBackgroundColor=none;fillColor=#F2CC8F;strokeColor=#E07A5F;fontColor=#393C56;" parent="_AmsLy0YTMM-9idU5BuL-1" vertex="1">
          <mxGeometry y="208" width="184.62" height="8" as="geometry" />
        </mxCell>
        <mxCell id="_AmsLy0YTMM-9idU5BuL-10" value="Vehicle Type" style="swimlane;fontStyle=0;align=center;verticalAlign=top;childLayout=stackLayout;horizontal=1;startSize=26;horizontalStack=0;resizeParent=1;resizeLast=0;collapsible=1;marginBottom=0;rounded=1;shadow=0;strokeWidth=1;labelBackgroundColor=none;fillColor=#F2CC8F;strokeColor=#E07A5F;fontColor=#393C56;" parent="WIyWlLk6GJQsqaUBKTNV-1" vertex="1">
          <mxGeometry x="470.12" y="820" width="184.62" height="180" as="geometry">
            <mxRectangle x="550" y="140" width="160" height="26" as="alternateBounds" />
          </mxGeometry>
        </mxCell>
        <mxCell id="_AmsLy0YTMM-9idU5BuL-11" value="Vehicle Type ID " style="text;align=left;verticalAlign=top;spacingLeft=4;spacingRight=4;overflow=hidden;rotatable=0;points=[[0,0.5],[1,0.5]];portConstraint=eastwest;rounded=1;labelBackgroundColor=none;fontColor=#393C56;" parent="_AmsLy0YTMM-9idU5BuL-10" vertex="1">
          <mxGeometry y="26" width="184.62" height="26" as="geometry" />
        </mxCell>
        <mxCell id="_AmsLy0YTMM-9idU5BuL-12" value="Name" style="text;align=left;verticalAlign=top;spacingLeft=4;spacingRight=4;overflow=hidden;rotatable=0;points=[[0,0.5],[1,0.5]];portConstraint=eastwest;rounded=1;shadow=0;html=0;labelBackgroundColor=none;fontColor=#393C56;" parent="_AmsLy0YTMM-9idU5BuL-10" vertex="1">
          <mxGeometry y="52" width="184.62" height="26" as="geometry" />
        </mxCell>
        <mxCell id="_AmsLy0YTMM-9idU5BuL-13" value="Status" style="text;align=left;verticalAlign=top;spacingLeft=4;spacingRight=4;overflow=hidden;rotatable=0;points=[[0,0.5],[1,0.5]];portConstraint=eastwest;rounded=1;shadow=0;html=0;labelBackgroundColor=none;fontColor=#393C56;" parent="_AmsLy0YTMM-9idU5BuL-10" vertex="1">
          <mxGeometry y="78" width="184.62" height="26" as="geometry" />
        </mxCell>
        <mxCell id="_AmsLy0YTMM-9idU5BuL-96" value="Update On" style="text;align=left;verticalAlign=top;spacingLeft=4;spacingRight=4;overflow=hidden;rotatable=0;points=[[0,0.5],[1,0.5]];portConstraint=eastwest;rounded=1;shadow=0;html=0;labelBackgroundColor=none;fontColor=#393C56;" parent="_AmsLy0YTMM-9idU5BuL-10" vertex="1">
          <mxGeometry y="104" width="184.62" height="26" as="geometry" />
        </mxCell>
        <mxCell id="_AmsLy0YTMM-9idU5BuL-14" value="Create On" style="text;align=left;verticalAlign=top;spacingLeft=4;spacingRight=4;overflow=hidden;rotatable=0;points=[[0,0.5],[1,0.5]];portConstraint=eastwest;rounded=1;shadow=0;html=0;labelBackgroundColor=none;fontColor=#393C56;" parent="_AmsLy0YTMM-9idU5BuL-10" vertex="1">
          <mxGeometry y="130" width="184.62" height="26" as="geometry" />
        </mxCell>
        <mxCell id="_AmsLy0YTMM-9idU5BuL-18" value="" style="line;html=1;strokeWidth=1;align=left;verticalAlign=middle;spacingTop=-1;spacingLeft=3;spacingRight=3;rotatable=0;labelPosition=right;points=[];portConstraint=eastwest;rounded=1;labelBackgroundColor=none;fillColor=#F2CC8F;strokeColor=#E07A5F;fontColor=#393C56;" parent="_AmsLy0YTMM-9idU5BuL-10" vertex="1">
          <mxGeometry y="156" width="184.62" height="8" as="geometry" />
        </mxCell>
        <mxCell id="_AmsLy0YTMM-9idU5BuL-20" value="Models" style="swimlane;fontStyle=0;align=center;verticalAlign=top;childLayout=stackLayout;horizontal=1;startSize=26;horizontalStack=0;resizeParent=1;resizeLast=0;collapsible=1;marginBottom=0;rounded=1;shadow=0;strokeWidth=1;labelBackgroundColor=none;fillColor=#F2CC8F;strokeColor=#E07A5F;fontColor=#393C56;" parent="WIyWlLk6GJQsqaUBKTNV-1" vertex="1">
          <mxGeometry x="31" y="1530" width="184.62" height="210" as="geometry">
            <mxRectangle x="550" y="140" width="160" height="26" as="alternateBounds" />
          </mxGeometry>
        </mxCell>
        <mxCell id="_AmsLy0YTMM-9idU5BuL-21" value="Model ID (int)" style="text;align=left;verticalAlign=top;spacingLeft=4;spacingRight=4;overflow=hidden;rotatable=0;points=[[0,0.5],[1,0.5]];portConstraint=eastwest;rounded=1;labelBackgroundColor=none;fontColor=#393C56;" parent="_AmsLy0YTMM-9idU5BuL-20" vertex="1">
          <mxGeometry y="26" width="184.62" height="26" as="geometry" />
        </mxCell>
        <mxCell id="_AmsLy0YTMM-9idU5BuL-22" value="Name" style="text;align=left;verticalAlign=top;spacingLeft=4;spacingRight=4;overflow=hidden;rotatable=0;points=[[0,0.5],[1,0.5]];portConstraint=eastwest;rounded=1;shadow=0;html=0;labelBackgroundColor=none;fontColor=#393C56;" parent="_AmsLy0YTMM-9idU5BuL-20" vertex="1">
          <mxGeometry y="52" width="184.62" height="26" as="geometry" />
        </mxCell>
        <mxCell id="_AmsLy0YTMM-9idU5BuL-33" value="Make ID (int)" style="text;align=left;verticalAlign=top;spacingLeft=4;spacingRight=4;overflow=hidden;rotatable=0;points=[[0,0.5],[1,0.5]];portConstraint=eastwest;rounded=1;shadow=0;html=0;labelBackgroundColor=none;fontColor=#393C56;" parent="_AmsLy0YTMM-9idU5BuL-20" vertex="1">
          <mxGeometry y="78" width="184.62" height="26" as="geometry" />
        </mxCell>
        <mxCell id="_AmsLy0YTMM-9idU5BuL-27" value="Status" style="text;align=left;verticalAlign=top;spacingLeft=4;spacingRight=4;overflow=hidden;rotatable=0;points=[[0,0.5],[1,0.5]];portConstraint=eastwest;rounded=1;shadow=0;html=0;labelBackgroundColor=none;fontColor=#393C56;" parent="_AmsLy0YTMM-9idU5BuL-20" vertex="1">
          <mxGeometry y="104" width="184.62" height="26" as="geometry" />
        </mxCell>
        <mxCell id="_AmsLy0YTMM-9idU5BuL-30" value="Update On" style="text;align=left;verticalAlign=top;spacingLeft=4;spacingRight=4;overflow=hidden;rotatable=0;points=[[0,0.5],[1,0.5]];portConstraint=eastwest;rounded=1;shadow=0;html=0;labelBackgroundColor=none;fontColor=#393C56;" parent="_AmsLy0YTMM-9idU5BuL-20" vertex="1">
          <mxGeometry y="130" width="184.62" height="26" as="geometry" />
        </mxCell>
        <mxCell id="_AmsLy0YTMM-9idU5BuL-31" value="Create On" style="text;align=left;verticalAlign=top;spacingLeft=4;spacingRight=4;overflow=hidden;rotatable=0;points=[[0,0.5],[1,0.5]];portConstraint=eastwest;rounded=1;shadow=0;html=0;labelBackgroundColor=none;fontColor=#393C56;" parent="_AmsLy0YTMM-9idU5BuL-20" vertex="1">
          <mxGeometry y="156" width="184.62" height="26" as="geometry" />
        </mxCell>
        <mxCell id="_AmsLy0YTMM-9idU5BuL-28" value="" style="line;html=1;strokeWidth=1;align=left;verticalAlign=middle;spacingTop=-1;spacingLeft=3;spacingRight=3;rotatable=0;labelPosition=right;points=[];portConstraint=eastwest;rounded=1;labelBackgroundColor=none;fillColor=#F2CC8F;strokeColor=#E07A5F;fontColor=#393C56;" parent="_AmsLy0YTMM-9idU5BuL-20" vertex="1">
          <mxGeometry y="182" width="184.62" height="8" as="geometry" />
        </mxCell>
        <mxCell id="_AmsLy0YTMM-9idU5BuL-45" style="edgeStyle=orthogonalEdgeStyle;rounded=1;orthogonalLoop=1;jettySize=auto;html=1;labelBackgroundColor=none;strokeColor=#E07A5F;fontColor=default;" parent="WIyWlLk6GJQsqaUBKTNV-1" source="_AmsLy0YTMM-9idU5BuL-34" target="_AmsLy0YTMM-9idU5BuL-33" edge="1">
          <mxGeometry relative="1" as="geometry">
            <mxPoint x="848" y="830" as="targetPoint" />
          </mxGeometry>
        </mxCell>
        <mxCell id="_AmsLy0YTMM-9idU5BuL-34" value="Vehicle Make" style="swimlane;fontStyle=0;align=center;verticalAlign=top;childLayout=stackLayout;horizontal=1;startSize=26;horizontalStack=0;resizeParent=1;resizeLast=0;collapsible=1;marginBottom=0;rounded=1;shadow=0;strokeWidth=1;labelBackgroundColor=none;fillColor=#F2CC8F;strokeColor=#E07A5F;fontColor=#393C56;" parent="WIyWlLk6GJQsqaUBKTNV-1" vertex="1">
          <mxGeometry x="270" y="1680" width="184.62" height="216" as="geometry">
            <mxRectangle x="550" y="140" width="160" height="26" as="alternateBounds" />
          </mxGeometry>
        </mxCell>
        <mxCell id="_AmsLy0YTMM-9idU5BuL-35" value="Model ID (int)" style="text;align=left;verticalAlign=top;spacingLeft=4;spacingRight=4;overflow=hidden;rotatable=0;points=[[0,0.5],[1,0.5]];portConstraint=eastwest;rounded=1;labelBackgroundColor=none;fontColor=#393C56;" parent="_AmsLy0YTMM-9idU5BuL-34" vertex="1">
          <mxGeometry y="26" width="184.62" height="26" as="geometry" />
        </mxCell>
        <mxCell id="_AmsLy0YTMM-9idU5BuL-36" value="Name" style="text;align=left;verticalAlign=top;spacingLeft=4;spacingRight=4;overflow=hidden;rotatable=0;points=[[0,0.5],[1,0.5]];portConstraint=eastwest;rounded=1;shadow=0;html=0;labelBackgroundColor=none;fontColor=#393C56;" parent="_AmsLy0YTMM-9idU5BuL-34" vertex="1">
          <mxGeometry y="52" width="184.62" height="26" as="geometry" />
        </mxCell>
        <mxCell id="_AmsLy0YTMM-9idU5BuL-38" value="Status" style="text;align=left;verticalAlign=top;spacingLeft=4;spacingRight=4;overflow=hidden;rotatable=0;points=[[0,0.5],[1,0.5]];portConstraint=eastwest;rounded=1;shadow=0;html=0;labelBackgroundColor=none;fontColor=#393C56;" parent="_AmsLy0YTMM-9idU5BuL-34" vertex="1">
          <mxGeometry y="78" width="184.62" height="26" as="geometry" />
        </mxCell>
        <mxCell id="_AmsLy0YTMM-9idU5BuL-50" value="Description" style="text;align=left;verticalAlign=top;spacingLeft=4;spacingRight=4;overflow=hidden;rotatable=0;points=[[0,0.5],[1,0.5]];portConstraint=eastwest;rounded=1;shadow=0;html=0;labelBackgroundColor=none;fontColor=#393C56;" parent="_AmsLy0YTMM-9idU5BuL-34" vertex="1">
          <mxGeometry y="104" width="184.62" height="26" as="geometry" />
        </mxCell>
        <mxCell id="_AmsLy0YTMM-9idU5BuL-49" value="Update On" style="text;align=left;verticalAlign=top;spacingLeft=4;spacingRight=4;overflow=hidden;rotatable=0;points=[[0,0.5],[1,0.5]];portConstraint=eastwest;rounded=1;shadow=0;html=0;labelBackgroundColor=none;fontColor=#393C56;" parent="_AmsLy0YTMM-9idU5BuL-34" vertex="1">
          <mxGeometry y="130" width="184.62" height="26" as="geometry" />
        </mxCell>
        <mxCell id="_AmsLy0YTMM-9idU5BuL-40" value="Create On" style="text;align=left;verticalAlign=top;spacingLeft=4;spacingRight=4;overflow=hidden;rotatable=0;points=[[0,0.5],[1,0.5]];portConstraint=eastwest;rounded=1;shadow=0;html=0;labelBackgroundColor=none;fontColor=#393C56;" parent="_AmsLy0YTMM-9idU5BuL-34" vertex="1">
          <mxGeometry y="156" width="184.62" height="26" as="geometry" />
        </mxCell>
        <mxCell id="_AmsLy0YTMM-9idU5BuL-41" value="" style="line;html=1;strokeWidth=1;align=left;verticalAlign=middle;spacingTop=-1;spacingLeft=3;spacingRight=3;rotatable=0;labelPosition=right;points=[];portConstraint=eastwest;rounded=1;labelBackgroundColor=none;fillColor=#F2CC8F;strokeColor=#E07A5F;fontColor=#393C56;" parent="_AmsLy0YTMM-9idU5BuL-34" vertex="1">
          <mxGeometry y="182" width="184.62" height="8" as="geometry" />
        </mxCell>
        <mxCell id="_AmsLy0YTMM-9idU5BuL-54" style="edgeStyle=orthogonalEdgeStyle;rounded=1;orthogonalLoop=1;jettySize=auto;html=1;labelBackgroundColor=none;strokeColor=#E07A5F;fontColor=default;" parent="WIyWlLk6GJQsqaUBKTNV-1" source="zkfFHV4jXpPFQw0GAbJ--20" target="_AmsLy0YTMM-9idU5BuL-2" edge="1">
          <mxGeometry relative="1" as="geometry" />
        </mxCell>
        <mxCell id="_AmsLy0YTMM-9idU5BuL-57" style="edgeStyle=orthogonalEdgeStyle;rounded=1;orthogonalLoop=1;jettySize=auto;html=1;labelBackgroundColor=none;strokeColor=#E07A5F;fontColor=default;" parent="WIyWlLk6GJQsqaUBKTNV-1" source="_AmsLy0YTMM-9idU5BuL-11" target="_AmsLy0YTMM-9idU5BuL-56" edge="1">
          <mxGeometry relative="1" as="geometry">
            <Array as="points" />
          </mxGeometry>
        </mxCell>
        <mxCell id="_AmsLy0YTMM-9idU5BuL-59" value="Fuel Type" style="swimlane;fontStyle=0;align=center;verticalAlign=top;childLayout=stackLayout;horizontal=1;startSize=26;horizontalStack=0;resizeParent=1;resizeLast=0;collapsible=1;marginBottom=0;rounded=1;shadow=0;strokeWidth=1;labelBackgroundColor=none;fillColor=#F2CC8F;strokeColor=#E07A5F;fontColor=#393C56;" parent="WIyWlLk6GJQsqaUBKTNV-1" vertex="1">
          <mxGeometry x="-250" y="980" width="184.62" height="220" as="geometry">
            <mxRectangle x="550" y="140" width="160" height="26" as="alternateBounds" />
          </mxGeometry>
        </mxCell>
        <mxCell id="_AmsLy0YTMM-9idU5BuL-60" value="Fuel Type ID" style="text;align=left;verticalAlign=top;spacingLeft=4;spacingRight=4;overflow=hidden;rotatable=0;points=[[0,0.5],[1,0.5]];portConstraint=eastwest;rounded=1;labelBackgroundColor=none;fontColor=#393C56;" parent="_AmsLy0YTMM-9idU5BuL-59" vertex="1">
          <mxGeometry y="26" width="184.62" height="26" as="geometry" />
        </mxCell>
        <mxCell id="_AmsLy0YTMM-9idU5BuL-97" value="Flags" style="text;align=left;verticalAlign=top;spacingLeft=4;spacingRight=4;overflow=hidden;rotatable=0;points=[[0,0.5],[1,0.5]];portConstraint=eastwest;rounded=1;shadow=0;html=0;labelBackgroundColor=none;fontColor=#393C56;" parent="_AmsLy0YTMM-9idU5BuL-59" vertex="1">
          <mxGeometry y="52" width="184.62" height="26" as="geometry" />
        </mxCell>
        <mxCell id="_AmsLy0YTMM-9idU5BuL-61" value="TFuel Type ID" style="text;align=left;verticalAlign=top;spacingLeft=4;spacingRight=4;overflow=hidden;rotatable=0;points=[[0,0.5],[1,0.5]];portConstraint=eastwest;rounded=1;shadow=0;html=0;labelBackgroundColor=none;fontColor=#393C56;" parent="_AmsLy0YTMM-9idU5BuL-59" vertex="1">
          <mxGeometry y="78" width="184.62" height="26" as="geometry" />
        </mxCell>
        <mxCell id="_AmsLy0YTMM-9idU5BuL-62" value="Status" style="text;align=left;verticalAlign=top;spacingLeft=4;spacingRight=4;overflow=hidden;rotatable=0;points=[[0,0.5],[1,0.5]];portConstraint=eastwest;rounded=1;shadow=0;html=0;labelBackgroundColor=none;fontColor=#393C56;" parent="_AmsLy0YTMM-9idU5BuL-59" vertex="1">
          <mxGeometry y="104" width="184.62" height="26" as="geometry" />
        </mxCell>
        <mxCell id="_AmsLy0YTMM-9idU5BuL-65" value="Create On" style="text;align=left;verticalAlign=top;spacingLeft=4;spacingRight=4;overflow=hidden;rotatable=0;points=[[0,0.5],[1,0.5]];portConstraint=eastwest;rounded=1;shadow=0;html=0;labelBackgroundColor=none;fontColor=#393C56;" parent="_AmsLy0YTMM-9idU5BuL-59" vertex="1">
          <mxGeometry y="130" width="184.62" height="26" as="geometry" />
        </mxCell>
        <mxCell id="_AmsLy0YTMM-9idU5BuL-63" value="Update On" style="text;align=left;verticalAlign=top;spacingLeft=4;spacingRight=4;overflow=hidden;rotatable=0;points=[[0,0.5],[1,0.5]];portConstraint=eastwest;rounded=1;shadow=0;html=0;labelBackgroundColor=none;fontColor=#393C56;" parent="_AmsLy0YTMM-9idU5BuL-59" vertex="1">
          <mxGeometry y="156" width="184.62" height="26" as="geometry" />
        </mxCell>
        <mxCell id="_AmsLy0YTMM-9idU5BuL-64" value="" style="line;html=1;strokeWidth=1;align=left;verticalAlign=middle;spacingTop=-1;spacingLeft=3;spacingRight=3;rotatable=0;labelPosition=right;points=[];portConstraint=eastwest;rounded=1;labelBackgroundColor=none;fillColor=#F2CC8F;strokeColor=#E07A5F;fontColor=#393C56;" parent="_AmsLy0YTMM-9idU5BuL-59" vertex="1">
          <mxGeometry y="182" width="184.62" height="8" as="geometry" />
        </mxCell>
        <mxCell id="_AmsLy0YTMM-9idU5BuL-78" style="edgeStyle=orthogonalEdgeStyle;rounded=1;orthogonalLoop=1;jettySize=auto;html=1;entryX=0.5;entryY=1;entryDx=0;entryDy=0;labelBackgroundColor=none;strokeColor=#E07A5F;fontColor=default;" parent="WIyWlLk6GJQsqaUBKTNV-1" source="_AmsLy0YTMM-9idU5BuL-66" target="_AmsLy0YTMM-9idU5BuL-59" edge="1">
          <mxGeometry relative="1" as="geometry" />
        </mxCell>
        <mxCell id="_AmsLy0YTMM-9idU5BuL-66" value="TFuel Type" style="swimlane;fontStyle=0;align=center;verticalAlign=top;childLayout=stackLayout;horizontal=1;startSize=26;horizontalStack=0;resizeParent=1;resizeLast=0;collapsible=1;marginBottom=0;rounded=1;shadow=0;strokeWidth=1;labelBackgroundColor=none;fillColor=#F2CC8F;strokeColor=#E07A5F;fontColor=#393C56;" parent="WIyWlLk6GJQsqaUBKTNV-1" vertex="1">
          <mxGeometry x="-450" y="1210" width="184.62" height="220" as="geometry">
            <mxRectangle x="550" y="140" width="160" height="26" as="alternateBounds" />
          </mxGeometry>
        </mxCell>
        <mxCell id="_AmsLy0YTMM-9idU5BuL-98" value="Transitions ID" style="text;align=left;verticalAlign=top;spacingLeft=4;spacingRight=4;overflow=hidden;rotatable=0;points=[[0,0.5],[1,0.5]];portConstraint=eastwest;rounded=1;labelBackgroundColor=none;fontColor=#393C56;" parent="_AmsLy0YTMM-9idU5BuL-66" vertex="1">
          <mxGeometry y="26" width="184.62" height="26" as="geometry" />
        </mxCell>
        <mxCell id="_AmsLy0YTMM-9idU5BuL-67" value="Fuel Type ID" style="text;align=left;verticalAlign=top;spacingLeft=4;spacingRight=4;overflow=hidden;rotatable=0;points=[[0,0.5],[1,0.5]];portConstraint=eastwest;rounded=1;labelBackgroundColor=none;fontColor=#393C56;" parent="_AmsLy0YTMM-9idU5BuL-66" vertex="1">
          <mxGeometry y="52" width="184.62" height="26" as="geometry" />
        </mxCell>
        <mxCell id="_AmsLy0YTMM-9idU5BuL-75" value="Name" style="text;align=left;verticalAlign=top;spacingLeft=4;spacingRight=4;overflow=hidden;rotatable=0;points=[[0,0.5],[1,0.5]];portConstraint=eastwest;rounded=1;shadow=0;html=0;labelBackgroundColor=none;fontColor=#393C56;" parent="_AmsLy0YTMM-9idU5BuL-66" vertex="1">
          <mxGeometry y="78" width="184.62" height="26" as="geometry" />
        </mxCell>
        <mxCell id="_AmsLy0YTMM-9idU5BuL-69" value="Status" style="text;align=left;verticalAlign=top;spacingLeft=4;spacingRight=4;overflow=hidden;rotatable=0;points=[[0,0.5],[1,0.5]];portConstraint=eastwest;rounded=1;shadow=0;html=0;labelBackgroundColor=none;fontColor=#393C56;" parent="_AmsLy0YTMM-9idU5BuL-66" vertex="1">
          <mxGeometry y="104" width="184.62" height="26" as="geometry" />
        </mxCell>
        <mxCell id="_AmsLy0YTMM-9idU5BuL-70" value="Create On" style="text;align=left;verticalAlign=top;spacingLeft=4;spacingRight=4;overflow=hidden;rotatable=0;points=[[0,0.5],[1,0.5]];portConstraint=eastwest;rounded=1;shadow=0;html=0;labelBackgroundColor=none;fontColor=#393C56;" parent="_AmsLy0YTMM-9idU5BuL-66" vertex="1">
          <mxGeometry y="130" width="184.62" height="26" as="geometry" />
        </mxCell>
        <mxCell id="_AmsLy0YTMM-9idU5BuL-71" value="Update On" style="text;align=left;verticalAlign=top;spacingLeft=4;spacingRight=4;overflow=hidden;rotatable=0;points=[[0,0.5],[1,0.5]];portConstraint=eastwest;rounded=1;shadow=0;html=0;labelBackgroundColor=none;fontColor=#393C56;" parent="_AmsLy0YTMM-9idU5BuL-66" vertex="1">
          <mxGeometry y="156" width="184.62" height="26" as="geometry" />
        </mxCell>
        <mxCell id="_AmsLy0YTMM-9idU5BuL-72" value="" style="line;html=1;strokeWidth=1;align=left;verticalAlign=middle;spacingTop=-1;spacingLeft=3;spacingRight=3;rotatable=0;labelPosition=right;points=[];portConstraint=eastwest;rounded=1;labelBackgroundColor=none;fillColor=#F2CC8F;strokeColor=#E07A5F;fontColor=#393C56;" parent="_AmsLy0YTMM-9idU5BuL-66" vertex="1">
          <mxGeometry y="182" width="184.62" height="8" as="geometry" />
        </mxCell>
        <mxCell id="_AmsLy0YTMM-9idU5BuL-79" style="edgeStyle=orthogonalEdgeStyle;rounded=1;orthogonalLoop=1;jettySize=auto;html=1;labelBackgroundColor=none;strokeColor=#E07A5F;fontColor=default;" parent="WIyWlLk6GJQsqaUBKTNV-1" source="zkfFHV4jXpPFQw0GAbJ--19" target="_AmsLy0YTMM-9idU5BuL-60" edge="1">
          <mxGeometry relative="1" as="geometry">
            <Array as="points">
              <mxPoint x="80" y="696" />
              <mxPoint x="80" y="790" />
              <mxPoint x="15" y="790" />
              <mxPoint x="15" y="1019" />
            </Array>
          </mxGeometry>
        </mxCell>
        <mxCell id="_AmsLy0YTMM-9idU5BuL-82" value="Variant" style="swimlane;fontStyle=0;align=center;verticalAlign=top;childLayout=stackLayout;horizontal=1;startSize=26;horizontalStack=0;resizeParent=1;resizeLast=0;collapsible=1;marginBottom=0;rounded=1;shadow=0;strokeWidth=1;labelBackgroundColor=none;fillColor=#F2CC8F;strokeColor=#E07A5F;fontColor=#393C56;" parent="WIyWlLk6GJQsqaUBKTNV-1" vertex="1">
          <mxGeometry x="-210" y="1390" width="184.62" height="190" as="geometry">
            <mxRectangle x="170" y="1030" width="160" height="26" as="alternateBounds" />
          </mxGeometry>
        </mxCell>
        <mxCell id="_AmsLy0YTMM-9idU5BuL-83" value="Variant ID" style="text;align=left;verticalAlign=top;spacingLeft=4;spacingRight=4;overflow=hidden;rotatable=0;points=[[0,0.5],[1,0.5]];portConstraint=eastwest;rounded=1;labelBackgroundColor=none;fontColor=#393C56;" parent="_AmsLy0YTMM-9idU5BuL-82" vertex="1">
          <mxGeometry y="26" width="184.62" height="26" as="geometry" />
        </mxCell>
        <mxCell id="_AmsLy0YTMM-9idU5BuL-84" value="Name" style="text;align=left;verticalAlign=top;spacingLeft=4;spacingRight=4;overflow=hidden;rotatable=0;points=[[0,0.5],[1,0.5]];portConstraint=eastwest;rounded=1;shadow=0;html=0;labelBackgroundColor=none;fontColor=#393C56;" parent="_AmsLy0YTMM-9idU5BuL-82" vertex="1">
          <mxGeometry y="52" width="184.62" height="26" as="geometry" />
        </mxCell>
        <mxCell id="_AmsLy0YTMM-9idU5BuL-85" value="Status" style="text;align=left;verticalAlign=top;spacingLeft=4;spacingRight=4;overflow=hidden;rotatable=0;points=[[0,0.5],[1,0.5]];portConstraint=eastwest;rounded=1;shadow=0;html=0;labelBackgroundColor=none;fontColor=#393C56;" parent="_AmsLy0YTMM-9idU5BuL-82" vertex="1">
          <mxGeometry y="78" width="184.62" height="26" as="geometry" />
        </mxCell>
        <mxCell id="_AmsLy0YTMM-9idU5BuL-86" value="Create On" style="text;align=left;verticalAlign=top;spacingLeft=4;spacingRight=4;overflow=hidden;rotatable=0;points=[[0,0.5],[1,0.5]];portConstraint=eastwest;rounded=1;shadow=0;html=0;labelBackgroundColor=none;fontColor=#393C56;" parent="_AmsLy0YTMM-9idU5BuL-82" vertex="1">
          <mxGeometry y="104" width="184.62" height="26" as="geometry" />
        </mxCell>
        <mxCell id="_AmsLy0YTMM-9idU5BuL-87" value="Update On" style="text;align=left;verticalAlign=top;spacingLeft=4;spacingRight=4;overflow=hidden;rotatable=0;points=[[0,0.5],[1,0.5]];portConstraint=eastwest;rounded=1;shadow=0;html=0;labelBackgroundColor=none;fontColor=#393C56;" parent="_AmsLy0YTMM-9idU5BuL-82" vertex="1">
          <mxGeometry y="130" width="184.62" height="26" as="geometry" />
        </mxCell>
        <mxCell id="_AmsLy0YTMM-9idU5BuL-88" value="" style="line;html=1;strokeWidth=1;align=left;verticalAlign=middle;spacingTop=-1;spacingLeft=3;spacingRight=3;rotatable=0;labelPosition=right;points=[];portConstraint=eastwest;rounded=1;labelBackgroundColor=none;fillColor=#F2CC8F;strokeColor=#E07A5F;fontColor=#393C56;" parent="_AmsLy0YTMM-9idU5BuL-82" vertex="1">
          <mxGeometry y="156" width="184.62" height="8" as="geometry" />
        </mxCell>
        <mxCell id="_AmsLy0YTMM-9idU5BuL-91" style="edgeStyle=orthogonalEdgeStyle;rounded=1;orthogonalLoop=1;jettySize=auto;html=1;entryX=0;entryY=0.5;entryDx=0;entryDy=0;labelBackgroundColor=none;strokeColor=#E07A5F;fontColor=default;" parent="WIyWlLk6GJQsqaUBKTNV-1" source="_AmsLy0YTMM-9idU5BuL-83" target="zkfFHV4jXpPFQw0GAbJ--22" edge="1">
          <mxGeometry relative="1" as="geometry" />
        </mxCell>
        <mxCell id="_AmsLy0YTMM-9idU5BuL-122" value="" style="edgeStyle=orthogonalEdgeStyle;rounded=1;orthogonalLoop=1;jettySize=auto;html=1;exitX=0;exitY=0.5;exitDx=0;exitDy=0;labelBackgroundColor=none;strokeColor=#E07A5F;fontColor=default;" parent="WIyWlLk6GJQsqaUBKTNV-1" source="_AmsLy0YTMM-9idU5BuL-107" target="_AmsLy0YTMM-9idU5BuL-114" edge="1">
          <mxGeometry relative="1" as="geometry" />
        </mxCell>
        <mxCell id="_AmsLy0YTMM-9idU5BuL-99" value="Vehicle Detail" style="swimlane;fontStyle=0;align=center;verticalAlign=top;childLayout=stackLayout;horizontal=1;startSize=26;horizontalStack=0;resizeParent=1;resizeLast=0;collapsible=1;marginBottom=0;rounded=1;shadow=0;strokeWidth=1;labelBackgroundColor=none;fillColor=#F2CC8F;strokeColor=#E07A5F;fontColor=#393C56;" parent="WIyWlLk6GJQsqaUBKTNV-1" vertex="1">
          <mxGeometry x="-210" y="700" width="184.62" height="220" as="geometry">
            <mxRectangle x="550" y="140" width="160" height="26" as="alternateBounds" />
          </mxGeometry>
        </mxCell>
        <mxCell id="_AmsLy0YTMM-9idU5BuL-100" value="Vehicle ID" style="text;align=left;verticalAlign=top;spacingLeft=4;spacingRight=4;overflow=hidden;rotatable=0;points=[[0,0.5],[1,0.5]];portConstraint=eastwest;rounded=1;labelBackgroundColor=none;fontColor=#393C56;" parent="_AmsLy0YTMM-9idU5BuL-99" vertex="1">
          <mxGeometry y="26" width="184.62" height="26" as="geometry" />
        </mxCell>
        <mxCell id="_AmsLy0YTMM-9idU5BuL-101" value="Vehicle Name" style="text;align=left;verticalAlign=top;spacingLeft=4;spacingRight=4;overflow=hidden;rotatable=0;points=[[0,0.5],[1,0.5]];portConstraint=eastwest;rounded=1;shadow=0;html=0;labelBackgroundColor=none;fontColor=#393C56;" parent="_AmsLy0YTMM-9idU5BuL-99" vertex="1">
          <mxGeometry y="52" width="184.62" height="28" as="geometry" />
        </mxCell>
        <mxCell id="_AmsLy0YTMM-9idU5BuL-107" value="Color ID" style="text;align=left;verticalAlign=top;spacingLeft=4;spacingRight=4;overflow=hidden;rotatable=0;points=[[0,0.5],[1,0.5]];portConstraint=eastwest;rounded=1;shadow=0;html=0;labelBackgroundColor=none;fontColor=#393C56;" parent="_AmsLy0YTMM-9idU5BuL-99" vertex="1">
          <mxGeometry y="80" width="184.62" height="26" as="geometry" />
        </mxCell>
        <mxCell id="_AmsLy0YTMM-9idU5BuL-108" value="Status" style="text;align=left;verticalAlign=top;spacingLeft=4;spacingRight=4;overflow=hidden;rotatable=0;points=[[0,0.5],[1,0.5]];portConstraint=eastwest;rounded=1;shadow=0;html=0;labelBackgroundColor=none;fontColor=#393C56;" parent="_AmsLy0YTMM-9idU5BuL-99" vertex="1">
          <mxGeometry y="106" width="184.62" height="26" as="geometry" />
        </mxCell>
        <mxCell id="_AmsLy0YTMM-9idU5BuL-109" value="Create On" style="text;align=left;verticalAlign=top;spacingLeft=4;spacingRight=4;overflow=hidden;rotatable=0;points=[[0,0.5],[1,0.5]];portConstraint=eastwest;rounded=1;shadow=0;html=0;labelBackgroundColor=none;fontColor=#393C56;" parent="_AmsLy0YTMM-9idU5BuL-99" vertex="1">
          <mxGeometry y="132" width="184.62" height="26" as="geometry" />
        </mxCell>
        <mxCell id="_AmsLy0YTMM-9idU5BuL-110" value="Update On" style="text;align=left;verticalAlign=top;spacingLeft=4;spacingRight=4;overflow=hidden;rotatable=0;points=[[0,0.5],[1,0.5]];portConstraint=eastwest;rounded=1;shadow=0;html=0;labelBackgroundColor=none;fontColor=#393C56;" parent="_AmsLy0YTMM-9idU5BuL-99" vertex="1">
          <mxGeometry y="158" width="184.62" height="26" as="geometry" />
        </mxCell>
        <mxCell id="_AmsLy0YTMM-9idU5BuL-111" value="" style="line;html=1;strokeWidth=1;align=left;verticalAlign=middle;spacingTop=-1;spacingLeft=3;spacingRight=3;rotatable=0;labelPosition=right;points=[];portConstraint=eastwest;rounded=1;labelBackgroundColor=none;fillColor=#F2CC8F;strokeColor=#E07A5F;fontColor=#393C56;" parent="_AmsLy0YTMM-9idU5BuL-99" vertex="1">
          <mxGeometry y="184" width="184.62" height="18" as="geometry" />
        </mxCell>
        <mxCell id="_AmsLy0YTMM-9idU5BuL-114" value="Color Detail" style="swimlane;fontStyle=0;align=center;verticalAlign=top;childLayout=stackLayout;horizontal=1;startSize=26;horizontalStack=0;resizeParent=1;resizeLast=0;collapsible=1;marginBottom=0;rounded=1;shadow=0;strokeWidth=1;labelBackgroundColor=none;fillColor=#F2CC8F;strokeColor=#E07A5F;fontColor=#393C56;" parent="WIyWlLk6GJQsqaUBKTNV-1" vertex="1">
          <mxGeometry x="-450" y="580" width="184.62" height="200" as="geometry">
            <mxRectangle x="550" y="140" width="160" height="26" as="alternateBounds" />
          </mxGeometry>
        </mxCell>
        <mxCell id="_AmsLy0YTMM-9idU5BuL-115" value="Color ID" style="text;align=left;verticalAlign=top;spacingLeft=4;spacingRight=4;overflow=hidden;rotatable=0;points=[[0,0.5],[1,0.5]];portConstraint=eastwest;rounded=1;labelBackgroundColor=none;fontColor=#393C56;" parent="_AmsLy0YTMM-9idU5BuL-114" vertex="1">
          <mxGeometry y="26" width="184.62" height="26" as="geometry" />
        </mxCell>
        <mxCell id="_AmsLy0YTMM-9idU5BuL-116" value="Name" style="text;align=left;verticalAlign=top;spacingLeft=4;spacingRight=4;overflow=hidden;rotatable=0;points=[[0,0.5],[1,0.5]];portConstraint=eastwest;rounded=1;shadow=0;html=0;labelBackgroundColor=none;fontColor=#393C56;" parent="_AmsLy0YTMM-9idU5BuL-114" vertex="1">
          <mxGeometry y="52" width="184.62" height="28" as="geometry" />
        </mxCell>
        <mxCell id="_AmsLy0YTMM-9idU5BuL-118" value="Status" style="text;align=left;verticalAlign=top;spacingLeft=4;spacingRight=4;overflow=hidden;rotatable=0;points=[[0,0.5],[1,0.5]];portConstraint=eastwest;rounded=1;shadow=0;html=0;labelBackgroundColor=none;fontColor=#393C56;" parent="_AmsLy0YTMM-9idU5BuL-114" vertex="1">
          <mxGeometry y="80" width="184.62" height="26" as="geometry" />
        </mxCell>
        <mxCell id="_AmsLy0YTMM-9idU5BuL-119" value="Create On" style="text;align=left;verticalAlign=top;spacingLeft=4;spacingRight=4;overflow=hidden;rotatable=0;points=[[0,0.5],[1,0.5]];portConstraint=eastwest;rounded=1;shadow=0;html=0;labelBackgroundColor=none;fontColor=#393C56;" parent="_AmsLy0YTMM-9idU5BuL-114" vertex="1">
          <mxGeometry y="106" width="184.62" height="26" as="geometry" />
        </mxCell>
        <mxCell id="_AmsLy0YTMM-9idU5BuL-120" value="Update On" style="text;align=left;verticalAlign=top;spacingLeft=4;spacingRight=4;overflow=hidden;rotatable=0;points=[[0,0.5],[1,0.5]];portConstraint=eastwest;rounded=1;shadow=0;html=0;labelBackgroundColor=none;fontColor=#393C56;" parent="_AmsLy0YTMM-9idU5BuL-114" vertex="1">
          <mxGeometry y="132" width="184.62" height="26" as="geometry" />
        </mxCell>
        <mxCell id="_AmsLy0YTMM-9idU5BuL-121" value="" style="line;html=1;strokeWidth=1;align=left;verticalAlign=middle;spacingTop=-1;spacingLeft=3;spacingRight=3;rotatable=0;labelPosition=right;points=[];portConstraint=eastwest;rounded=1;labelBackgroundColor=none;fillColor=#F2CC8F;strokeColor=#E07A5F;fontColor=#393C56;" parent="_AmsLy0YTMM-9idU5BuL-114" vertex="1">
          <mxGeometry y="158" width="184.62" height="18" as="geometry" />
        </mxCell>
        <mxCell id="_AmsLy0YTMM-9idU5BuL-136" style="edgeStyle=orthogonalEdgeStyle;rounded=1;orthogonalLoop=1;jettySize=auto;html=1;labelBackgroundColor=none;strokeColor=#E07A5F;fontColor=default;" parent="WIyWlLk6GJQsqaUBKTNV-1" source="_AmsLy0YTMM-9idU5BuL-125" target="1j_XflQxe0Tt35u-Hjj--4" edge="1">
          <mxGeometry relative="1" as="geometry" />
        </mxCell>
        <mxCell id="_AmsLy0YTMM-9idU5BuL-125" value="Region" style="swimlane;fontStyle=0;align=center;verticalAlign=top;childLayout=stackLayout;horizontal=1;startSize=26;horizontalStack=0;resizeParent=1;resizeLast=0;collapsible=1;marginBottom=0;rounded=1;shadow=0;strokeWidth=1;labelBackgroundColor=none;fillColor=#F2CC8F;strokeColor=#E07A5F;fontColor=#393C56;" parent="WIyWlLk6GJQsqaUBKTNV-1" vertex="1">
          <mxGeometry x="300" y="1210" width="184.62" height="242" as="geometry">
            <mxRectangle x="170" y="1030" width="160" height="26" as="alternateBounds" />
          </mxGeometry>
        </mxCell>
        <mxCell id="_AmsLy0YTMM-9idU5BuL-126" value="Region ID" style="text;align=left;verticalAlign=top;spacingLeft=4;spacingRight=4;overflow=hidden;rotatable=0;points=[[0,0.5],[1,0.5]];portConstraint=eastwest;rounded=1;labelBackgroundColor=none;fontColor=#393C56;" parent="_AmsLy0YTMM-9idU5BuL-125" vertex="1">
          <mxGeometry y="26" width="184.62" height="26" as="geometry" />
        </mxCell>
        <mxCell id="_AmsLy0YTMM-9idU5BuL-127" value="Code" style="text;align=left;verticalAlign=top;spacingLeft=4;spacingRight=4;overflow=hidden;rotatable=0;points=[[0,0.5],[1,0.5]];portConstraint=eastwest;rounded=1;shadow=0;html=0;labelBackgroundColor=none;fontColor=#393C56;" parent="_AmsLy0YTMM-9idU5BuL-125" vertex="1">
          <mxGeometry y="52" width="184.62" height="26" as="geometry" />
        </mxCell>
        <mxCell id="_AmsLy0YTMM-9idU5BuL-133" value="Contry" style="text;align=left;verticalAlign=top;spacingLeft=4;spacingRight=4;overflow=hidden;rotatable=0;points=[[0,0.5],[1,0.5]];portConstraint=eastwest;rounded=1;shadow=0;html=0;labelBackgroundColor=none;fontColor=#393C56;" parent="_AmsLy0YTMM-9idU5BuL-125" vertex="1">
          <mxGeometry y="78" width="184.62" height="26" as="geometry" />
        </mxCell>
        <mxCell id="_AmsLy0YTMM-9idU5BuL-128" value="Name" style="text;align=left;verticalAlign=top;spacingLeft=4;spacingRight=4;overflow=hidden;rotatable=0;points=[[0,0.5],[1,0.5]];portConstraint=eastwest;rounded=1;shadow=0;html=0;labelBackgroundColor=none;fontColor=#393C56;" parent="_AmsLy0YTMM-9idU5BuL-125" vertex="1">
          <mxGeometry y="104" width="184.62" height="26" as="geometry" />
        </mxCell>
        <mxCell id="_AmsLy0YTMM-9idU5BuL-132" value="Status" style="text;align=left;verticalAlign=top;spacingLeft=4;spacingRight=4;overflow=hidden;rotatable=0;points=[[0,0.5],[1,0.5]];portConstraint=eastwest;rounded=1;shadow=0;html=0;labelBackgroundColor=none;fontColor=#393C56;" parent="_AmsLy0YTMM-9idU5BuL-125" vertex="1">
          <mxGeometry y="130" width="184.62" height="26" as="geometry" />
        </mxCell>
        <mxCell id="_AmsLy0YTMM-9idU5BuL-129" value="Create On" style="text;align=left;verticalAlign=top;spacingLeft=4;spacingRight=4;overflow=hidden;rotatable=0;points=[[0,0.5],[1,0.5]];portConstraint=eastwest;rounded=1;shadow=0;html=0;labelBackgroundColor=none;fontColor=#393C56;" parent="_AmsLy0YTMM-9idU5BuL-125" vertex="1">
          <mxGeometry y="156" width="184.62" height="26" as="geometry" />
        </mxCell>
        <mxCell id="_AmsLy0YTMM-9idU5BuL-130" value="Update On" style="text;align=left;verticalAlign=top;spacingLeft=4;spacingRight=4;overflow=hidden;rotatable=0;points=[[0,0.5],[1,0.5]];portConstraint=eastwest;rounded=1;shadow=0;html=0;labelBackgroundColor=none;fontColor=#393C56;" parent="_AmsLy0YTMM-9idU5BuL-125" vertex="1">
          <mxGeometry y="182" width="184.62" height="26" as="geometry" />
        </mxCell>
        <mxCell id="_AmsLy0YTMM-9idU5BuL-131" value="" style="line;html=1;strokeWidth=1;align=left;verticalAlign=middle;spacingTop=-1;spacingLeft=3;spacingRight=3;rotatable=0;labelPosition=right;points=[];portConstraint=eastwest;rounded=1;labelBackgroundColor=none;fillColor=#F2CC8F;strokeColor=#E07A5F;fontColor=#393C56;" parent="_AmsLy0YTMM-9idU5BuL-125" vertex="1">
          <mxGeometry y="208" width="184.62" height="8" as="geometry" />
        </mxCell>
        <mxCell id="5J3ZqUvZW8YMCF7k5WIT-23" style="edgeStyle=orthogonalEdgeStyle;rounded=1;orthogonalLoop=1;jettySize=auto;html=1;exitX=0.004;exitY=0.419;exitDx=0;exitDy=0;labelBackgroundColor=none;strokeColor=#E07A5F;fontColor=default;exitPerimeter=0;" parent="WIyWlLk6GJQsqaUBKTNV-1" source="V10LMP8ZxMr598pEJ-7t-31" target="8uALSgamqrS27bfwQgdc-18" edge="1">
          <mxGeometry relative="1" as="geometry">
            <mxPoint x="570" y="-220" as="sourcePoint" />
            <Array as="points">
              <mxPoint x="562" y="-189" />
              <mxPoint x="540" y="-189" />
              <mxPoint x="540" y="-510" />
            </Array>
          </mxGeometry>
        </mxCell>
        <mxCell id="pKip1tppJ04PTtZ95Z_z-1" value="Service" style="swimlane;fontStyle=2;align=center;verticalAlign=top;childLayout=stackLayout;horizontal=1;startSize=26;horizontalStack=0;resizeParent=1;resizeLast=0;collapsible=1;marginBottom=0;rounded=1;shadow=0;strokeWidth=1;labelBackgroundColor=none;fillColor=#F2CC8F;strokeColor=#E07A5F;fontColor=#393C56;" parent="WIyWlLk6GJQsqaUBKTNV-1" vertex="1">
          <mxGeometry x="562.31" y="-280" width="160" height="200" as="geometry">
            <mxRectangle x="-830" y="60" width="160" height="26" as="alternateBounds" />
          </mxGeometry>
        </mxCell>
        <mxCell id="pKip1tppJ04PTtZ95Z_z-2" value="Service ID" style="text;align=left;verticalAlign=top;spacingLeft=4;spacingRight=4;overflow=hidden;rotatable=0;points=[[0,0.5],[1,0.5]];portConstraint=eastwest;rounded=1;labelBackgroundColor=none;fontColor=#393C56;" parent="pKip1tppJ04PTtZ95Z_z-1" vertex="1">
          <mxGeometry y="26" width="160" height="26" as="geometry" />
        </mxCell>
        <mxCell id="pKip1tppJ04PTtZ95Z_z-3" value="Service Name" style="text;align=left;verticalAlign=top;spacingLeft=4;spacingRight=4;overflow=hidden;rotatable=0;points=[[0,0.5],[1,0.5]];portConstraint=eastwest;rounded=1;shadow=0;html=0;labelBackgroundColor=none;fontColor=#393C56;" parent="pKip1tppJ04PTtZ95Z_z-1" vertex="1">
          <mxGeometry y="52" width="160" height="26" as="geometry" />
        </mxCell>
        <mxCell id="V10LMP8ZxMr598pEJ-7t-31" value="Rate ID" style="text;align=left;verticalAlign=top;spacingLeft=4;spacingRight=4;overflow=hidden;rotatable=0;points=[[0,0.5],[1,0.5]];portConstraint=eastwest;rounded=1;shadow=0;html=0;labelBackgroundColor=none;fontColor=#393C56;" vertex="1" parent="pKip1tppJ04PTtZ95Z_z-1">
          <mxGeometry y="78" width="160" height="30" as="geometry" />
        </mxCell>
        <mxCell id="pKip1tppJ04PTtZ95Z_z-4" value="Description" style="text;align=left;verticalAlign=top;spacingLeft=4;spacingRight=4;overflow=hidden;rotatable=0;points=[[0,0.5],[1,0.5]];portConstraint=eastwest;rounded=1;shadow=0;html=0;labelBackgroundColor=none;fontColor=#393C56;" parent="pKip1tppJ04PTtZ95Z_z-1" vertex="1">
          <mxGeometry y="108" width="160" height="26" as="geometry" />
        </mxCell>
        <mxCell id="pKip1tppJ04PTtZ95Z_z-5" value="Amount" style="text;align=left;verticalAlign=top;spacingLeft=4;spacingRight=4;overflow=hidden;rotatable=0;points=[[0,0.5],[1,0.5]];portConstraint=eastwest;rounded=1;shadow=0;html=0;labelBackgroundColor=none;fontColor=#393C56;" parent="pKip1tppJ04PTtZ95Z_z-1" vertex="1">
          <mxGeometry y="134" width="160" height="30" as="geometry" />
        </mxCell>
        <mxCell id="pKip1tppJ04PTtZ95Z_z-9" value="" style="line;html=1;strokeWidth=1;align=left;verticalAlign=middle;spacingTop=-1;spacingLeft=3;spacingRight=3;rotatable=0;labelPosition=right;points=[];portConstraint=eastwest;rounded=1;labelBackgroundColor=none;fillColor=#F2CC8F;strokeColor=#E07A5F;fontColor=#393C56;" parent="pKip1tppJ04PTtZ95Z_z-1" vertex="1">
          <mxGeometry y="164" width="160" height="16" as="geometry" />
        </mxCell>
        <mxCell id="5J3ZqUvZW8YMCF7k5WIT-30" style="edgeStyle=orthogonalEdgeStyle;rounded=1;orthogonalLoop=1;jettySize=auto;html=1;entryX=1;entryY=0.5;entryDx=0;entryDy=0;labelBackgroundColor=none;strokeColor=#E07A5F;fontColor=default;" parent="WIyWlLk6GJQsqaUBKTNV-1" source="pKip1tppJ04PTtZ95Z_z-13" target="pKip1tppJ04PTtZ95Z_z-4" edge="1">
          <mxGeometry relative="1" as="geometry" />
        </mxCell>
        <mxCell id="pKip1tppJ04PTtZ95Z_z-13" value="Technician" style="swimlane;fontStyle=2;align=center;verticalAlign=top;childLayout=stackLayout;horizontal=1;startSize=26;horizontalStack=0;resizeParent=1;resizeLast=0;collapsible=1;marginBottom=0;rounded=1;shadow=0;strokeWidth=1;labelBackgroundColor=none;fillColor=#F2CC8F;strokeColor=#E07A5F;fontColor=#393C56;" parent="WIyWlLk6GJQsqaUBKTNV-1" vertex="1">
          <mxGeometry x="775.5" y="-400" width="160" height="320" as="geometry">
            <mxRectangle x="-830" y="60" width="160" height="26" as="alternateBounds" />
          </mxGeometry>
        </mxCell>
        <mxCell id="pKip1tppJ04PTtZ95Z_z-14" value="Technician ID" style="text;align=left;verticalAlign=top;spacingLeft=4;spacingRight=4;overflow=hidden;rotatable=0;points=[[0,0.5],[1,0.5]];portConstraint=eastwest;rounded=1;labelBackgroundColor=none;fontColor=#393C56;" parent="pKip1tppJ04PTtZ95Z_z-13" vertex="1">
          <mxGeometry y="26" width="160" height="26" as="geometry" />
        </mxCell>
        <mxCell id="pKip1tppJ04PTtZ95Z_z-15" value="Technician Code" style="text;align=left;verticalAlign=top;spacingLeft=4;spacingRight=4;overflow=hidden;rotatable=0;points=[[0,0.5],[1,0.5]];portConstraint=eastwest;rounded=1;shadow=0;html=0;labelBackgroundColor=none;fontColor=#393C56;" parent="pKip1tppJ04PTtZ95Z_z-13" vertex="1">
          <mxGeometry y="52" width="160" height="26" as="geometry" />
        </mxCell>
        <mxCell id="pKip1tppJ04PTtZ95Z_z-16" value="Avatar" style="text;align=left;verticalAlign=top;spacingLeft=4;spacingRight=4;overflow=hidden;rotatable=0;points=[[0,0.5],[1,0.5]];portConstraint=eastwest;rounded=1;shadow=0;html=0;labelBackgroundColor=none;fontColor=#393C56;" parent="pKip1tppJ04PTtZ95Z_z-13" vertex="1">
          <mxGeometry y="78" width="160" height="26" as="geometry" />
        </mxCell>
        <mxCell id="pKip1tppJ04PTtZ95Z_z-17" value="Technician Name" style="text;align=left;verticalAlign=top;spacingLeft=4;spacingRight=4;overflow=hidden;rotatable=0;points=[[0,0.5],[1,0.5]];portConstraint=eastwest;rounded=1;shadow=0;html=0;labelBackgroundColor=none;fontColor=#393C56;" parent="pKip1tppJ04PTtZ95Z_z-13" vertex="1">
          <mxGeometry y="104" width="160" height="30" as="geometry" />
        </mxCell>
        <mxCell id="pKip1tppJ04PTtZ95Z_z-20" value="Technician Email" style="text;align=left;verticalAlign=top;spacingLeft=4;spacingRight=4;overflow=hidden;rotatable=0;points=[[0,0.5],[1,0.5]];portConstraint=eastwest;rounded=1;shadow=0;html=0;labelBackgroundColor=none;fontColor=#393C56;" parent="pKip1tppJ04PTtZ95Z_z-13" vertex="1">
          <mxGeometry y="134" width="160" height="30" as="geometry" />
        </mxCell>
        <mxCell id="pKip1tppJ04PTtZ95Z_z-21" value="Technician Contact" style="text;align=left;verticalAlign=top;spacingLeft=4;spacingRight=4;overflow=hidden;rotatable=0;points=[[0,0.5],[1,0.5]];portConstraint=eastwest;rounded=1;shadow=0;html=0;labelBackgroundColor=none;fontColor=#393C56;" parent="pKip1tppJ04PTtZ95Z_z-13" vertex="1">
          <mxGeometry y="164" width="160" height="30" as="geometry" />
        </mxCell>
        <mxCell id="pKip1tppJ04PTtZ95Z_z-22" value="Technician Username" style="text;align=left;verticalAlign=top;spacingLeft=4;spacingRight=4;overflow=hidden;rotatable=0;points=[[0,0.5],[1,0.5]];portConstraint=eastwest;rounded=1;shadow=0;html=0;labelBackgroundColor=none;fontColor=#393C56;" parent="pKip1tppJ04PTtZ95Z_z-13" vertex="1">
          <mxGeometry y="194" width="160" height="30" as="geometry" />
        </mxCell>
        <mxCell id="pKip1tppJ04PTtZ95Z_z-23" value="Technician Password" style="text;align=left;verticalAlign=top;spacingLeft=4;spacingRight=4;overflow=hidden;rotatable=0;points=[[0,0.5],[1,0.5]];portConstraint=eastwest;rounded=1;shadow=0;html=0;labelBackgroundColor=none;fontColor=#393C56;" parent="pKip1tppJ04PTtZ95Z_z-13" vertex="1">
          <mxGeometry y="224" width="160" height="30" as="geometry" />
        </mxCell>
        <mxCell id="pKip1tppJ04PTtZ95Z_z-24" value="Status" style="text;align=left;verticalAlign=top;spacingLeft=4;spacingRight=4;overflow=hidden;rotatable=0;points=[[0,0.5],[1,0.5]];portConstraint=eastwest;rounded=1;shadow=0;html=0;labelBackgroundColor=none;fontColor=#393C56;" parent="pKip1tppJ04PTtZ95Z_z-13" vertex="1">
          <mxGeometry y="254" width="160" height="30" as="geometry" />
        </mxCell>
        <mxCell id="pKip1tppJ04PTtZ95Z_z-18" value="" style="line;html=1;strokeWidth=1;align=left;verticalAlign=middle;spacingTop=-1;spacingLeft=3;spacingRight=3;rotatable=0;labelPosition=right;points=[];portConstraint=eastwest;rounded=1;labelBackgroundColor=none;fillColor=#F2CC8F;strokeColor=#E07A5F;fontColor=#393C56;" parent="pKip1tppJ04PTtZ95Z_z-13" vertex="1">
          <mxGeometry y="284" width="160" height="8" as="geometry" />
        </mxCell>
        <mxCell id="8uALSgamqrS27bfwQgdc-2" value="Payments" style="swimlane;fontStyle=2;align=center;verticalAlign=top;childLayout=stackLayout;horizontal=1;startSize=26;horizontalStack=0;resizeParent=1;resizeLast=0;collapsible=1;marginBottom=0;rounded=1;shadow=0;strokeWidth=1;labelBackgroundColor=none;fillColor=#F2CC8F;strokeColor=#E07A5F;fontColor=#393C56;" parent="WIyWlLk6GJQsqaUBKTNV-1" vertex="1">
          <mxGeometry x="330" y="64" width="160" height="296" as="geometry">
            <mxRectangle x="-830" y="60" width="160" height="26" as="alternateBounds" />
          </mxGeometry>
        </mxCell>
        <mxCell id="8uALSgamqrS27bfwQgdc-3" value="Payment ID" style="text;align=left;verticalAlign=top;spacingLeft=4;spacingRight=4;overflow=hidden;rotatable=0;points=[[0,0.5],[1,0.5]];portConstraint=eastwest;rounded=1;labelBackgroundColor=none;fontColor=#393C56;" parent="8uALSgamqrS27bfwQgdc-2" vertex="1">
          <mxGeometry y="26" width="160" height="26" as="geometry" />
        </mxCell>
        <mxCell id="5J3ZqUvZW8YMCF7k5WIT-19" value="Work order ID" style="text;align=left;verticalAlign=top;spacingLeft=4;spacingRight=4;overflow=hidden;rotatable=0;points=[[0,0.5],[1,0.5]];portConstraint=eastwest;rounded=1;labelBackgroundColor=none;fontColor=#393C56;" parent="8uALSgamqrS27bfwQgdc-2" vertex="1">
          <mxGeometry y="52" width="160" height="26" as="geometry" />
        </mxCell>
        <mxCell id="8uALSgamqrS27bfwQgdc-4" value="Is Paid" style="text;align=left;verticalAlign=top;spacingLeft=4;spacingRight=4;overflow=hidden;rotatable=0;points=[[0,0.5],[1,0.5]];portConstraint=eastwest;rounded=1;shadow=0;html=0;labelBackgroundColor=none;fontColor=#393C56;" parent="8uALSgamqrS27bfwQgdc-2" vertex="1">
          <mxGeometry y="78" width="160" height="26" as="geometry" />
        </mxCell>
        <mxCell id="8uALSgamqrS27bfwQgdc-5" value="Total Amount" style="text;align=left;verticalAlign=top;spacingLeft=4;spacingRight=4;overflow=hidden;rotatable=0;points=[[0,0.5],[1,0.5]];portConstraint=eastwest;rounded=1;shadow=0;html=0;labelBackgroundColor=none;fontColor=#393C56;" parent="8uALSgamqrS27bfwQgdc-2" vertex="1">
          <mxGeometry y="104" width="160" height="26" as="geometry" />
        </mxCell>
        <mxCell id="8uALSgamqrS27bfwQgdc-6" value="Amount" style="text;align=left;verticalAlign=top;spacingLeft=4;spacingRight=4;overflow=hidden;rotatable=0;points=[[0,0.5],[1,0.5]];portConstraint=eastwest;rounded=1;shadow=0;html=0;labelBackgroundColor=none;fontColor=#393C56;" parent="8uALSgamqrS27bfwQgdc-2" vertex="1">
          <mxGeometry y="130" width="160" height="30" as="geometry" />
        </mxCell>
        <mxCell id="8uALSgamqrS27bfwQgdc-10" value="Date of payment" style="text;align=left;verticalAlign=top;spacingLeft=4;spacingRight=4;overflow=hidden;rotatable=0;points=[[0,0.5],[1,0.5]];portConstraint=eastwest;rounded=1;shadow=0;html=0;labelBackgroundColor=none;fontColor=#393C56;" parent="8uALSgamqrS27bfwQgdc-2" vertex="1">
          <mxGeometry y="160" width="160" height="30" as="geometry" />
        </mxCell>
        <mxCell id="8uALSgamqrS27bfwQgdc-11" value="Paid by" style="text;align=left;verticalAlign=top;spacingLeft=4;spacingRight=4;overflow=hidden;rotatable=0;points=[[0,0.5],[1,0.5]];portConstraint=eastwest;rounded=1;shadow=0;html=0;labelBackgroundColor=none;fontColor=#393C56;" parent="8uALSgamqrS27bfwQgdc-2" vertex="1">
          <mxGeometry y="190" width="160" height="26" as="geometry" />
        </mxCell>
        <mxCell id="8uALSgamqrS27bfwQgdc-12" value="Remark" style="text;align=left;verticalAlign=top;spacingLeft=4;spacingRight=4;overflow=hidden;rotatable=0;points=[[0,0.5],[1,0.5]];portConstraint=eastwest;rounded=1;shadow=0;html=0;labelBackgroundColor=none;fontColor=#393C56;" parent="8uALSgamqrS27bfwQgdc-2" vertex="1">
          <mxGeometry y="216" width="160" height="26" as="geometry" />
        </mxCell>
        <mxCell id="8uALSgamqrS27bfwQgdc-13" value="Processed by" style="text;align=left;verticalAlign=top;spacingLeft=4;spacingRight=4;overflow=hidden;rotatable=0;points=[[0,0.5],[1,0.5]];portConstraint=eastwest;rounded=1;shadow=0;html=0;labelBackgroundColor=none;fontColor=#393C56;" parent="8uALSgamqrS27bfwQgdc-2" vertex="1">
          <mxGeometry y="242" width="160" height="26" as="geometry" />
        </mxCell>
        <mxCell id="8uALSgamqrS27bfwQgdc-7" value="" style="line;html=1;strokeWidth=1;align=left;verticalAlign=middle;spacingTop=-1;spacingLeft=3;spacingRight=3;rotatable=0;labelPosition=right;points=[];portConstraint=eastwest;rounded=1;labelBackgroundColor=none;fillColor=#F2CC8F;strokeColor=#E07A5F;fontColor=#393C56;" parent="8uALSgamqrS27bfwQgdc-2" vertex="1">
          <mxGeometry y="268" width="160" height="8" as="geometry" />
        </mxCell>
        <mxCell id="8uALSgamqrS27bfwQgdc-15" value="Work Order" style="swimlane;fontStyle=2;align=center;verticalAlign=top;childLayout=stackLayout;horizontal=1;startSize=26;horizontalStack=0;resizeParent=1;resizeLast=0;collapsible=1;marginBottom=0;rounded=1;shadow=0;strokeWidth=1;labelBackgroundColor=none;fillColor=#F2CC8F;strokeColor=#E07A5F;fontColor=#393C56;" parent="WIyWlLk6GJQsqaUBKTNV-1" vertex="1">
          <mxGeometry x="310.12" y="-600" width="160" height="340" as="geometry">
            <mxRectangle x="-830" y="60" width="160" height="26" as="alternateBounds" />
          </mxGeometry>
        </mxCell>
        <mxCell id="8uALSgamqrS27bfwQgdc-16" value="Work Order ID" style="text;align=left;verticalAlign=top;spacingLeft=4;spacingRight=4;overflow=hidden;rotatable=0;points=[[0,0.5],[1,0.5]];portConstraint=eastwest;rounded=1;labelBackgroundColor=none;fontColor=#393C56;" parent="8uALSgamqrS27bfwQgdc-15" vertex="1">
          <mxGeometry y="26" width="160" height="26" as="geometry" />
        </mxCell>
        <mxCell id="8uALSgamqrS27bfwQgdc-17" value="Request Date " style="text;align=left;verticalAlign=top;spacingLeft=4;spacingRight=4;overflow=hidden;rotatable=0;points=[[0,0.5],[1,0.5]];portConstraint=eastwest;rounded=1;shadow=0;html=0;labelBackgroundColor=none;fontColor=#393C56;" parent="8uALSgamqrS27bfwQgdc-15" vertex="1">
          <mxGeometry y="52" width="160" height="26" as="geometry" />
        </mxCell>
        <mxCell id="8uALSgamqrS27bfwQgdc-18" value="Service ID" style="text;align=left;verticalAlign=top;spacingLeft=4;spacingRight=4;overflow=hidden;rotatable=0;points=[[0,0.5],[1,0.5]];portConstraint=eastwest;rounded=1;shadow=0;html=0;labelBackgroundColor=none;fontColor=#393C56;" parent="8uALSgamqrS27bfwQgdc-15" vertex="1">
          <mxGeometry y="78" width="160" height="24" as="geometry" />
        </mxCell>
        <mxCell id="TfA8qvyjhMoh7MB1J778-4" value="Amount" style="text;align=left;verticalAlign=top;spacingLeft=4;spacingRight=4;overflow=hidden;rotatable=0;points=[[0,0.5],[1,0.5]];portConstraint=eastwest;rounded=1;shadow=0;html=0;labelBackgroundColor=none;fontColor=#393C56;" parent="8uALSgamqrS27bfwQgdc-15" vertex="1">
          <mxGeometry y="102" width="160" height="30" as="geometry" />
        </mxCell>
        <mxCell id="TfA8qvyjhMoh7MB1J778-3" value="Customer ID" style="text;align=left;verticalAlign=top;spacingLeft=4;spacingRight=4;overflow=hidden;rotatable=0;points=[[0,0.5],[1,0.5]];portConstraint=eastwest;rounded=1;shadow=0;html=0;labelBackgroundColor=none;fontColor=#393C56;" parent="8uALSgamqrS27bfwQgdc-15" vertex="1">
          <mxGeometry y="132" width="160" height="30" as="geometry" />
        </mxCell>
        <mxCell id="TfA8qvyjhMoh7MB1J778-5" value="Technician ID" style="text;align=left;verticalAlign=top;spacingLeft=4;spacingRight=4;overflow=hidden;rotatable=0;points=[[0,0.5],[1,0.5]];portConstraint=eastwest;rounded=1;shadow=0;html=0;labelBackgroundColor=none;fontColor=#393C56;" parent="8uALSgamqrS27bfwQgdc-15" vertex="1">
          <mxGeometry y="162" width="160" height="30" as="geometry" />
        </mxCell>
        <mxCell id="TfA8qvyjhMoh7MB1J778-6" value="Estimate date of completion " style="text;align=left;verticalAlign=top;spacingLeft=4;spacingRight=4;overflow=hidden;rotatable=0;points=[[0,0.5],[1,0.5]];portConstraint=eastwest;rounded=1;shadow=0;html=0;labelBackgroundColor=none;fontColor=#393C56;" parent="8uALSgamqrS27bfwQgdc-15" vertex="1">
          <mxGeometry y="192" width="160" height="30" as="geometry" />
        </mxCell>
        <mxCell id="TfA8qvyjhMoh7MB1J778-7" value="Status" style="text;align=left;verticalAlign=top;spacingLeft=4;spacingRight=4;overflow=hidden;rotatable=0;points=[[0,0.5],[1,0.5]];portConstraint=eastwest;rounded=1;shadow=0;html=0;labelBackgroundColor=none;fontColor=#393C56;" parent="8uALSgamqrS27bfwQgdc-15" vertex="1">
          <mxGeometry y="222" width="160" height="30" as="geometry" />
        </mxCell>
        <mxCell id="TfA8qvyjhMoh7MB1J778-8" value="Remark" style="text;align=left;verticalAlign=top;spacingLeft=4;spacingRight=4;overflow=hidden;rotatable=0;points=[[0,0.5],[1,0.5]];portConstraint=eastwest;rounded=1;shadow=0;html=0;labelBackgroundColor=none;fontColor=#393C56;" parent="8uALSgamqrS27bfwQgdc-15" vertex="1">
          <mxGeometry y="252" width="160" height="30" as="geometry" />
        </mxCell>
        <mxCell id="8uALSgamqrS27bfwQgdc-19" value="Processed by" style="text;align=left;verticalAlign=top;spacingLeft=4;spacingRight=4;overflow=hidden;rotatable=0;points=[[0,0.5],[1,0.5]];portConstraint=eastwest;rounded=1;shadow=0;html=0;labelBackgroundColor=none;fontColor=#393C56;" parent="8uALSgamqrS27bfwQgdc-15" vertex="1">
          <mxGeometry y="282" width="160" height="30" as="geometry" />
        </mxCell>
        <mxCell id="8uALSgamqrS27bfwQgdc-25" value="" style="line;html=1;strokeWidth=1;align=left;verticalAlign=middle;spacingTop=-1;spacingLeft=3;spacingRight=3;rotatable=0;labelPosition=right;points=[];portConstraint=eastwest;rounded=1;labelBackgroundColor=none;fillColor=#F2CC8F;strokeColor=#E07A5F;fontColor=#393C56;" parent="8uALSgamqrS27bfwQgdc-15" vertex="1">
          <mxGeometry y="312" width="160" height="8" as="geometry" />
        </mxCell>
        <mxCell id="TfA8qvyjhMoh7MB1J778-9" value="Work Order Details" style="swimlane;fontStyle=2;align=center;verticalAlign=top;childLayout=stackLayout;horizontal=1;startSize=26;horizontalStack=0;resizeParent=1;resizeLast=0;collapsible=1;marginBottom=0;rounded=1;shadow=0;strokeWidth=1;labelBackgroundColor=none;fillColor=#F2CC8F;strokeColor=#E07A5F;fontColor=#393C56;" parent="WIyWlLk6GJQsqaUBKTNV-1" vertex="1">
          <mxGeometry x="310.12" y="-185" width="160" height="230" as="geometry">
            <mxRectangle x="-830" y="60" width="160" height="26" as="alternateBounds" />
          </mxGeometry>
        </mxCell>
        <mxCell id="TfA8qvyjhMoh7MB1J778-10" value="Work order detail id" style="text;align=left;verticalAlign=top;spacingLeft=4;spacingRight=4;overflow=hidden;rotatable=0;points=[[0,0.5],[1,0.5]];portConstraint=eastwest;rounded=1;labelBackgroundColor=none;fontColor=#393C56;" parent="TfA8qvyjhMoh7MB1J778-9" vertex="1">
          <mxGeometry y="26" width="160" height="26" as="geometry" />
        </mxCell>
        <mxCell id="TfA8qvyjhMoh7MB1J778-11" value="Work order id" style="text;align=left;verticalAlign=top;spacingLeft=4;spacingRight=4;overflow=hidden;rotatable=0;points=[[0,0.5],[1,0.5]];portConstraint=eastwest;rounded=1;shadow=0;html=0;labelBackgroundColor=none;fontColor=#393C56;" parent="TfA8qvyjhMoh7MB1J778-9" vertex="1">
          <mxGeometry y="52" width="160" height="26" as="geometry" />
        </mxCell>
        <mxCell id="TfA8qvyjhMoh7MB1J778-12" value="Item ID" style="text;align=left;verticalAlign=top;spacingLeft=4;spacingRight=4;overflow=hidden;rotatable=0;points=[[0,0.5],[1,0.5]];portConstraint=eastwest;rounded=1;shadow=0;html=0;labelBackgroundColor=none;fontColor=#393C56;" parent="TfA8qvyjhMoh7MB1J778-9" vertex="1">
          <mxGeometry y="78" width="160" height="26" as="geometry" />
        </mxCell>
        <mxCell id="TfA8qvyjhMoh7MB1J778-13" value="Quantity" style="text;align=left;verticalAlign=top;spacingLeft=4;spacingRight=4;overflow=hidden;rotatable=0;points=[[0,0.5],[1,0.5]];portConstraint=eastwest;rounded=1;shadow=0;html=0;labelBackgroundColor=none;fontColor=#393C56;" parent="TfA8qvyjhMoh7MB1J778-9" vertex="1">
          <mxGeometry y="104" width="160" height="30" as="geometry" />
        </mxCell>
        <mxCell id="TfA8qvyjhMoh7MB1J778-17" value="Amount " style="text;align=left;verticalAlign=top;spacingLeft=4;spacingRight=4;overflow=hidden;rotatable=0;points=[[0,0.5],[1,0.5]];portConstraint=eastwest;rounded=1;shadow=0;html=0;labelBackgroundColor=none;fontColor=#393C56;" parent="TfA8qvyjhMoh7MB1J778-9" vertex="1">
          <mxGeometry y="134" width="160" height="30" as="geometry" />
        </mxCell>
        <mxCell id="TfA8qvyjhMoh7MB1J778-18" value="Total" style="text;align=left;verticalAlign=top;spacingLeft=4;spacingRight=4;overflow=hidden;rotatable=0;points=[[0,0.5],[1,0.5]];portConstraint=eastwest;rounded=1;shadow=0;html=0;labelBackgroundColor=none;fontColor=#393C56;" parent="TfA8qvyjhMoh7MB1J778-9" vertex="1">
          <mxGeometry y="164" width="160" height="30" as="geometry" />
        </mxCell>
        <mxCell id="TfA8qvyjhMoh7MB1J778-14" value="" style="line;html=1;strokeWidth=1;align=left;verticalAlign=middle;spacingTop=-1;spacingLeft=3;spacingRight=3;rotatable=0;labelPosition=right;points=[];portConstraint=eastwest;rounded=1;labelBackgroundColor=none;fillColor=#F2CC8F;strokeColor=#E07A5F;fontColor=#393C56;" parent="TfA8qvyjhMoh7MB1J778-9" vertex="1">
          <mxGeometry y="194" width="160" height="8" as="geometry" />
        </mxCell>
        <mxCell id="TfA8qvyjhMoh7MB1J778-44" value="" style="edgeStyle=orthogonalEdgeStyle;rounded=1;orthogonalLoop=1;jettySize=auto;html=1;labelBackgroundColor=none;strokeColor=#E07A5F;fontColor=default;" parent="WIyWlLk6GJQsqaUBKTNV-1" source="TfA8qvyjhMoh7MB1J778-19" target="TfA8qvyjhMoh7MB1J778-34" edge="1">
          <mxGeometry relative="1" as="geometry" />
        </mxCell>
        <mxCell id="TfA8qvyjhMoh7MB1J778-19" value="Item" style="swimlane;fontStyle=2;align=center;verticalAlign=top;childLayout=stackLayout;horizontal=1;startSize=26;horizontalStack=0;resizeParent=1;resizeLast=0;collapsible=1;marginBottom=0;rounded=1;shadow=0;strokeWidth=1;labelBackgroundColor=none;fillColor=#F2CC8F;strokeColor=#E07A5F;fontColor=#393C56;" parent="WIyWlLk6GJQsqaUBKTNV-1" vertex="1">
          <mxGeometry x="564.26" y="114.67" width="160" height="315" as="geometry">
            <mxRectangle x="-830" y="60" width="160" height="26" as="alternateBounds" />
          </mxGeometry>
        </mxCell>
        <mxCell id="TfA8qvyjhMoh7MB1J778-20" value="Item ID" style="text;align=left;verticalAlign=top;spacingLeft=4;spacingRight=4;overflow=hidden;rotatable=0;points=[[0,0.5],[1,0.5]];portConstraint=eastwest;rounded=1;labelBackgroundColor=none;fontColor=#393C56;" parent="TfA8qvyjhMoh7MB1J778-19" vertex="1">
          <mxGeometry y="26" width="160" height="26" as="geometry" />
        </mxCell>
        <mxCell id="5J3ZqUvZW8YMCF7k5WIT-42" value="Vehicle ID" style="text;align=left;verticalAlign=top;spacingLeft=4;spacingRight=4;overflow=hidden;rotatable=0;points=[[0,0.5],[1,0.5]];portConstraint=eastwest;rounded=1;shadow=0;html=0;labelBackgroundColor=none;fontColor=#393C56;" parent="TfA8qvyjhMoh7MB1J778-19" vertex="1">
          <mxGeometry y="52" width="160" height="30" as="geometry" />
        </mxCell>
        <mxCell id="TfA8qvyjhMoh7MB1J778-21" value="Item name" style="text;align=left;verticalAlign=top;spacingLeft=4;spacingRight=4;overflow=hidden;rotatable=0;points=[[0,0.5],[1,0.5]];portConstraint=eastwest;rounded=1;shadow=0;html=0;labelBackgroundColor=none;fontColor=#393C56;" parent="TfA8qvyjhMoh7MB1J778-19" vertex="1">
          <mxGeometry y="82" width="160" height="26" as="geometry" />
        </mxCell>
        <mxCell id="TfA8qvyjhMoh7MB1J778-22" value="Item Category id" style="text;align=left;verticalAlign=top;spacingLeft=4;spacingRight=4;overflow=hidden;rotatable=0;points=[[0,0.5],[1,0.5]];portConstraint=eastwest;rounded=1;shadow=0;html=0;labelBackgroundColor=none;fontColor=#393C56;" parent="TfA8qvyjhMoh7MB1J778-19" vertex="1">
          <mxGeometry y="108" width="160" height="26" as="geometry" />
        </mxCell>
        <mxCell id="TfA8qvyjhMoh7MB1J778-23" value="Image" style="text;align=left;verticalAlign=top;spacingLeft=4;spacingRight=4;overflow=hidden;rotatable=0;points=[[0,0.5],[1,0.5]];portConstraint=eastwest;rounded=1;shadow=0;html=0;labelBackgroundColor=none;fontColor=#393C56;" parent="TfA8qvyjhMoh7MB1J778-19" vertex="1">
          <mxGeometry y="134" width="160" height="30" as="geometry" />
        </mxCell>
        <mxCell id="TfA8qvyjhMoh7MB1J778-24" value="Description" style="text;align=left;verticalAlign=top;spacingLeft=4;spacingRight=4;overflow=hidden;rotatable=0;points=[[0,0.5],[1,0.5]];portConstraint=eastwest;rounded=1;shadow=0;html=0;labelBackgroundColor=none;fontColor=#393C56;" parent="TfA8qvyjhMoh7MB1J778-19" vertex="1">
          <mxGeometry y="164" width="160" height="30" as="geometry" />
        </mxCell>
        <mxCell id="TfA8qvyjhMoh7MB1J778-25" value="Serial no" style="text;align=left;verticalAlign=top;spacingLeft=4;spacingRight=4;overflow=hidden;rotatable=0;points=[[0,0.5],[1,0.5]];portConstraint=eastwest;rounded=1;shadow=0;html=0;labelBackgroundColor=none;fontColor=#393C56;" parent="TfA8qvyjhMoh7MB1J778-19" vertex="1">
          <mxGeometry y="194" width="160" height="30" as="geometry" />
        </mxCell>
        <mxCell id="TfA8qvyjhMoh7MB1J778-28" value="Amount" style="text;align=left;verticalAlign=top;spacingLeft=4;spacingRight=4;overflow=hidden;rotatable=0;points=[[0,0.5],[1,0.5]];portConstraint=eastwest;rounded=1;shadow=0;html=0;labelBackgroundColor=none;fontColor=#393C56;" parent="TfA8qvyjhMoh7MB1J778-19" vertex="1">
          <mxGeometry y="224" width="160" height="30" as="geometry" />
        </mxCell>
        <mxCell id="TfA8qvyjhMoh7MB1J778-29" value="Encoded by" style="text;align=left;verticalAlign=top;spacingLeft=4;spacingRight=4;overflow=hidden;rotatable=0;points=[[0,0.5],[1,0.5]];portConstraint=eastwest;rounded=1;shadow=0;html=0;labelBackgroundColor=none;fontColor=#393C56;" parent="TfA8qvyjhMoh7MB1J778-19" vertex="1">
          <mxGeometry y="254" width="160" height="30" as="geometry" />
        </mxCell>
        <mxCell id="TfA8qvyjhMoh7MB1J778-26" value="" style="line;html=1;strokeWidth=1;align=left;verticalAlign=middle;spacingTop=-1;spacingLeft=3;spacingRight=3;rotatable=0;labelPosition=right;points=[];portConstraint=eastwest;rounded=1;labelBackgroundColor=none;fillColor=#F2CC8F;strokeColor=#E07A5F;fontColor=#393C56;" parent="TfA8qvyjhMoh7MB1J778-19" vertex="1">
          <mxGeometry y="284" width="160" height="8" as="geometry" />
        </mxCell>
        <mxCell id="TfA8qvyjhMoh7MB1J778-49" value="" style="edgeStyle=orthogonalEdgeStyle;rounded=1;orthogonalLoop=1;jettySize=auto;html=1;labelBackgroundColor=none;strokeColor=#E07A5F;fontColor=default;" parent="WIyWlLk6GJQsqaUBKTNV-1" source="TfA8qvyjhMoh7MB1J778-34" target="TfA8qvyjhMoh7MB1J778-45" edge="1">
          <mxGeometry relative="1" as="geometry" />
        </mxCell>
        <mxCell id="TfA8qvyjhMoh7MB1J778-34" value="Item Category" style="swimlane;fontStyle=2;align=center;verticalAlign=top;childLayout=stackLayout;horizontal=1;startSize=26;horizontalStack=0;resizeParent=1;resizeLast=0;collapsible=1;marginBottom=0;rounded=1;shadow=0;strokeWidth=1;labelBackgroundColor=none;fillColor=#F2CC8F;strokeColor=#E07A5F;fontColor=#393C56;" parent="WIyWlLk6GJQsqaUBKTNV-1" vertex="1">
          <mxGeometry x="775.5" y="120" width="160" height="105" as="geometry">
            <mxRectangle x="-830" y="60" width="160" height="26" as="alternateBounds" />
          </mxGeometry>
        </mxCell>
        <mxCell id="TfA8qvyjhMoh7MB1J778-35" value="Item category id" style="text;align=left;verticalAlign=top;spacingLeft=4;spacingRight=4;overflow=hidden;rotatable=0;points=[[0,0.5],[1,0.5]];portConstraint=eastwest;rounded=1;labelBackgroundColor=none;fontColor=#393C56;" parent="TfA8qvyjhMoh7MB1J778-34" vertex="1">
          <mxGeometry y="26" width="160" height="26" as="geometry" />
        </mxCell>
        <mxCell id="TfA8qvyjhMoh7MB1J778-36" value="Category name" style="text;align=left;verticalAlign=top;spacingLeft=4;spacingRight=4;overflow=hidden;rotatable=0;points=[[0,0.5],[1,0.5]];portConstraint=eastwest;rounded=1;shadow=0;html=0;labelBackgroundColor=none;fontColor=#393C56;" parent="TfA8qvyjhMoh7MB1J778-34" vertex="1">
          <mxGeometry y="52" width="160" height="26" as="geometry" />
        </mxCell>
        <mxCell id="TfA8qvyjhMoh7MB1J778-43" value="" style="line;html=1;strokeWidth=1;align=left;verticalAlign=middle;spacingTop=-1;spacingLeft=3;spacingRight=3;rotatable=0;labelPosition=right;points=[];portConstraint=eastwest;rounded=1;labelBackgroundColor=none;fillColor=#F2CC8F;strokeColor=#E07A5F;fontColor=#393C56;" parent="TfA8qvyjhMoh7MB1J778-34" vertex="1">
          <mxGeometry y="78" width="160" height="8" as="geometry" />
        </mxCell>
        <mxCell id="TfA8qvyjhMoh7MB1J778-45" value="Client" style="swimlane;fontStyle=2;align=center;verticalAlign=top;childLayout=stackLayout;horizontal=1;startSize=26;horizontalStack=0;resizeParent=1;resizeLast=0;collapsible=1;marginBottom=0;rounded=1;shadow=0;strokeWidth=1;labelBackgroundColor=none;fillColor=#F2CC8F;strokeColor=#E07A5F;fontColor=#393C56;" parent="WIyWlLk6GJQsqaUBKTNV-1" vertex="1">
          <mxGeometry x="975.5" y="80" width="160" height="315" as="geometry">
            <mxRectangle x="-830" y="60" width="160" height="26" as="alternateBounds" />
          </mxGeometry>
        </mxCell>
        <mxCell id="TfA8qvyjhMoh7MB1J778-46" value="Client id" style="text;align=left;verticalAlign=top;spacingLeft=4;spacingRight=4;overflow=hidden;rotatable=0;points=[[0,0.5],[1,0.5]];portConstraint=eastwest;rounded=1;labelBackgroundColor=none;fontColor=#393C56;" parent="TfA8qvyjhMoh7MB1J778-45" vertex="1">
          <mxGeometry y="26" width="160" height="26" as="geometry" />
        </mxCell>
        <mxCell id="TfA8qvyjhMoh7MB1J778-47" value="Client code" style="text;align=left;verticalAlign=top;spacingLeft=4;spacingRight=4;overflow=hidden;rotatable=0;points=[[0,0.5],[1,0.5]];portConstraint=eastwest;rounded=1;shadow=0;html=0;labelBackgroundColor=none;fontColor=#393C56;" parent="TfA8qvyjhMoh7MB1J778-45" vertex="1">
          <mxGeometry y="52" width="160" height="26" as="geometry" />
        </mxCell>
        <mxCell id="TfA8qvyjhMoh7MB1J778-51" value="Avatar" style="text;align=left;verticalAlign=top;spacingLeft=4;spacingRight=4;overflow=hidden;rotatable=0;points=[[0,0.5],[1,0.5]];portConstraint=eastwest;rounded=1;shadow=0;html=0;labelBackgroundColor=none;fontColor=#393C56;" parent="TfA8qvyjhMoh7MB1J778-45" vertex="1">
          <mxGeometry y="78" width="160" height="26" as="geometry" />
        </mxCell>
        <mxCell id="TfA8qvyjhMoh7MB1J778-52" value="Client name" style="text;align=left;verticalAlign=top;spacingLeft=4;spacingRight=4;overflow=hidden;rotatable=0;points=[[0,0.5],[1,0.5]];portConstraint=eastwest;rounded=1;shadow=0;html=0;labelBackgroundColor=none;fontColor=#393C56;" parent="TfA8qvyjhMoh7MB1J778-45" vertex="1">
          <mxGeometry y="104" width="160" height="26" as="geometry" />
        </mxCell>
        <mxCell id="TfA8qvyjhMoh7MB1J778-53" value="Email Address" style="text;align=left;verticalAlign=top;spacingLeft=4;spacingRight=4;overflow=hidden;rotatable=0;points=[[0,0.5],[1,0.5]];portConstraint=eastwest;rounded=1;shadow=0;html=0;labelBackgroundColor=none;fontColor=#393C56;" parent="TfA8qvyjhMoh7MB1J778-45" vertex="1">
          <mxGeometry y="130" width="160" height="26" as="geometry" />
        </mxCell>
        <mxCell id="TfA8qvyjhMoh7MB1J778-54" value="Contact number" style="text;align=left;verticalAlign=top;spacingLeft=4;spacingRight=4;overflow=hidden;rotatable=0;points=[[0,0.5],[1,0.5]];portConstraint=eastwest;rounded=1;shadow=0;html=0;labelBackgroundColor=none;fontColor=#393C56;" parent="TfA8qvyjhMoh7MB1J778-45" vertex="1">
          <mxGeometry y="156" width="160" height="26" as="geometry" />
        </mxCell>
        <mxCell id="TfA8qvyjhMoh7MB1J778-55" value="Complete address" style="text;align=left;verticalAlign=top;spacingLeft=4;spacingRight=4;overflow=hidden;rotatable=0;points=[[0,0.5],[1,0.5]];portConstraint=eastwest;rounded=1;shadow=0;html=0;labelBackgroundColor=none;fontColor=#393C56;" parent="TfA8qvyjhMoh7MB1J778-45" vertex="1">
          <mxGeometry y="182" width="160" height="26" as="geometry" />
        </mxCell>
        <mxCell id="TfA8qvyjhMoh7MB1J778-56" value="Username" style="text;align=left;verticalAlign=top;spacingLeft=4;spacingRight=4;overflow=hidden;rotatable=0;points=[[0,0.5],[1,0.5]];portConstraint=eastwest;rounded=1;shadow=0;html=0;labelBackgroundColor=none;fontColor=#393C56;" parent="TfA8qvyjhMoh7MB1J778-45" vertex="1">
          <mxGeometry y="208" width="160" height="26" as="geometry" />
        </mxCell>
        <mxCell id="TfA8qvyjhMoh7MB1J778-57" value="Password" style="text;align=left;verticalAlign=top;spacingLeft=4;spacingRight=4;overflow=hidden;rotatable=0;points=[[0,0.5],[1,0.5]];portConstraint=eastwest;rounded=1;shadow=0;html=0;labelBackgroundColor=none;fontColor=#393C56;" parent="TfA8qvyjhMoh7MB1J778-45" vertex="1">
          <mxGeometry y="234" width="160" height="26" as="geometry" />
        </mxCell>
        <mxCell id="TfA8qvyjhMoh7MB1J778-58" value="Status" style="text;align=left;verticalAlign=top;spacingLeft=4;spacingRight=4;overflow=hidden;rotatable=0;points=[[0,0.5],[1,0.5]];portConstraint=eastwest;rounded=1;shadow=0;html=0;labelBackgroundColor=none;fontColor=#393C56;" parent="TfA8qvyjhMoh7MB1J778-45" vertex="1">
          <mxGeometry y="260" width="160" height="26" as="geometry" />
        </mxCell>
        <mxCell id="TfA8qvyjhMoh7MB1J778-48" value="" style="line;html=1;strokeWidth=1;align=left;verticalAlign=middle;spacingTop=-1;spacingLeft=3;spacingRight=3;rotatable=0;labelPosition=right;points=[];portConstraint=eastwest;rounded=1;labelBackgroundColor=none;fillColor=#F2CC8F;strokeColor=#E07A5F;fontColor=#393C56;" parent="TfA8qvyjhMoh7MB1J778-45" vertex="1">
          <mxGeometry y="286" width="160" height="8" as="geometry" />
        </mxCell>
        <mxCell id="5J3ZqUvZW8YMCF7k5WIT-12" value="Shop Info" style="swimlane;fontStyle=2;align=center;verticalAlign=top;childLayout=stackLayout;horizontal=1;startSize=26;horizontalStack=0;resizeParent=1;resizeLast=0;collapsible=1;marginBottom=0;rounded=1;shadow=0;strokeWidth=1;labelBackgroundColor=none;fillColor=#F2CC8F;strokeColor=#E07A5F;fontColor=#393C56;" parent="WIyWlLk6GJQsqaUBKTNV-1" vertex="1">
          <mxGeometry x="1000" y="-490" width="160" height="400" as="geometry">
            <mxRectangle x="-830" y="60" width="160" height="26" as="alternateBounds" />
          </mxGeometry>
        </mxCell>
        <mxCell id="V10LMP8ZxMr598pEJ-7t-24" value="Shop ID" style="text;align=left;verticalAlign=top;spacingLeft=4;spacingRight=4;overflow=hidden;rotatable=0;points=[[0,0.5],[1,0.5]];portConstraint=eastwest;rounded=1;labelBackgroundColor=none;fontColor=#393C56;" vertex="1" parent="5J3ZqUvZW8YMCF7k5WIT-12">
          <mxGeometry y="26" width="160" height="26" as="geometry" />
        </mxCell>
        <mxCell id="5J3ZqUvZW8YMCF7k5WIT-13" value="Rate ID" style="text;align=left;verticalAlign=top;spacingLeft=4;spacingRight=4;overflow=hidden;rotatable=0;points=[[0,0.5],[1,0.5]];portConstraint=eastwest;rounded=1;labelBackgroundColor=none;fontColor=#393C56;" parent="5J3ZqUvZW8YMCF7k5WIT-12" vertex="1">
          <mxGeometry y="52" width="160" height="26" as="geometry" />
        </mxCell>
        <mxCell id="5J3ZqUvZW8YMCF7k5WIT-14" value="Shop Name" style="text;align=left;verticalAlign=top;spacingLeft=4;spacingRight=4;overflow=hidden;rotatable=0;points=[[0,0.5],[1,0.5]];portConstraint=eastwest;rounded=1;shadow=0;html=0;labelBackgroundColor=none;fontColor=#393C56;" parent="5J3ZqUvZW8YMCF7k5WIT-12" vertex="1">
          <mxGeometry y="78" width="160" height="26" as="geometry" />
        </mxCell>
        <mxCell id="5J3ZqUvZW8YMCF7k5WIT-15" value="Ower Name" style="text;align=left;verticalAlign=top;spacingLeft=4;spacingRight=4;overflow=hidden;rotatable=0;points=[[0,0.5],[1,0.5]];portConstraint=eastwest;rounded=1;shadow=0;html=0;labelBackgroundColor=none;fontColor=#393C56;" parent="5J3ZqUvZW8YMCF7k5WIT-12" vertex="1">
          <mxGeometry y="104" width="160" height="26" as="geometry" />
        </mxCell>
        <mxCell id="5J3ZqUvZW8YMCF7k5WIT-16" value="Address" style="text;align=left;verticalAlign=top;spacingLeft=4;spacingRight=4;overflow=hidden;rotatable=0;points=[[0,0.5],[1,0.5]];portConstraint=eastwest;rounded=1;shadow=0;html=0;labelBackgroundColor=none;fontColor=#393C56;" parent="5J3ZqUvZW8YMCF7k5WIT-12" vertex="1">
          <mxGeometry y="130" width="160" height="30" as="geometry" />
        </mxCell>
        <mxCell id="V10LMP8ZxMr598pEJ-7t-1" value="Email Address" style="text;align=left;verticalAlign=top;spacingLeft=4;spacingRight=4;overflow=hidden;rotatable=0;points=[[0,0.5],[1,0.5]];portConstraint=eastwest;rounded=1;shadow=0;html=0;labelBackgroundColor=none;fontColor=#393C56;" vertex="1" parent="5J3ZqUvZW8YMCF7k5WIT-12">
          <mxGeometry y="160" width="160" height="30" as="geometry" />
        </mxCell>
        <mxCell id="V10LMP8ZxMr598pEJ-7t-2" value="Phone Number " style="text;align=left;verticalAlign=top;spacingLeft=4;spacingRight=4;overflow=hidden;rotatable=0;points=[[0,0.5],[1,0.5]];portConstraint=eastwest;rounded=1;shadow=0;html=0;labelBackgroundColor=none;fontColor=#393C56;" vertex="1" parent="5J3ZqUvZW8YMCF7k5WIT-12">
          <mxGeometry y="190" width="160" height="30" as="geometry" />
        </mxCell>
        <mxCell id="V10LMP8ZxMr598pEJ-7t-3" value="Contact No" style="text;align=left;verticalAlign=top;spacingLeft=4;spacingRight=4;overflow=hidden;rotatable=0;points=[[0,0.5],[1,0.5]];portConstraint=eastwest;rounded=1;shadow=0;html=0;labelBackgroundColor=none;fontColor=#393C56;" vertex="1" parent="5J3ZqUvZW8YMCF7k5WIT-12">
          <mxGeometry y="220" width="160" height="30" as="geometry" />
        </mxCell>
        <mxCell id="V10LMP8ZxMr598pEJ-7t-4" value="Website" style="text;align=left;verticalAlign=top;spacingLeft=4;spacingRight=4;overflow=hidden;rotatable=0;points=[[0,0.5],[1,0.5]];portConstraint=eastwest;rounded=1;shadow=0;html=0;labelBackgroundColor=none;fontColor=#393C56;" vertex="1" parent="5J3ZqUvZW8YMCF7k5WIT-12">
          <mxGeometry y="250" width="160" height="30" as="geometry" />
        </mxCell>
        <mxCell id="V10LMP8ZxMr598pEJ-7t-5" value="Lat/Lng" style="text;align=left;verticalAlign=top;spacingLeft=4;spacingRight=4;overflow=hidden;rotatable=0;points=[[0,0.5],[1,0.5]];portConstraint=eastwest;rounded=1;shadow=0;html=0;labelBackgroundColor=none;fontColor=#393C56;" vertex="1" parent="5J3ZqUvZW8YMCF7k5WIT-12">
          <mxGeometry y="280" width="160" height="30" as="geometry" />
        </mxCell>
        <mxCell id="V10LMP8ZxMr598pEJ-7t-6" value="Address" style="text;align=left;verticalAlign=top;spacingLeft=4;spacingRight=4;overflow=hidden;rotatable=0;points=[[0,0.5],[1,0.5]];portConstraint=eastwest;rounded=1;shadow=0;html=0;labelBackgroundColor=none;fontColor=#393C56;" vertex="1" parent="5J3ZqUvZW8YMCF7k5WIT-12">
          <mxGeometry y="310" width="160" height="30" as="geometry" />
        </mxCell>
        <mxCell id="V10LMP8ZxMr598pEJ-7t-7" value="Update By " style="text;align=left;verticalAlign=top;spacingLeft=4;spacingRight=4;overflow=hidden;rotatable=0;points=[[0,0.5],[1,0.5]];portConstraint=eastwest;rounded=1;shadow=0;html=0;labelBackgroundColor=none;fontColor=#393C56;" vertex="1" parent="5J3ZqUvZW8YMCF7k5WIT-12">
          <mxGeometry y="340" width="160" height="30" as="geometry" />
        </mxCell>
        <mxCell id="5J3ZqUvZW8YMCF7k5WIT-17" value="" style="line;html=1;strokeWidth=1;align=left;verticalAlign=middle;spacingTop=-1;spacingLeft=3;spacingRight=3;rotatable=0;labelPosition=right;points=[];portConstraint=eastwest;rounded=1;labelBackgroundColor=none;fillColor=#F2CC8F;strokeColor=#E07A5F;fontColor=#393C56;" parent="5J3ZqUvZW8YMCF7k5WIT-12" vertex="1">
          <mxGeometry y="370" width="160" height="4" as="geometry" />
        </mxCell>
        <mxCell id="5J3ZqUvZW8YMCF7k5WIT-26" style="edgeStyle=orthogonalEdgeStyle;rounded=1;orthogonalLoop=1;jettySize=auto;html=1;entryX=0;entryY=0.5;entryDx=0;entryDy=0;labelBackgroundColor=none;strokeColor=#E07A5F;fontColor=default;" parent="WIyWlLk6GJQsqaUBKTNV-1" source="TfA8qvyjhMoh7MB1J778-10" target="8uALSgamqrS27bfwQgdc-18" edge="1">
          <mxGeometry relative="1" as="geometry" />
        </mxCell>
        <mxCell id="5J3ZqUvZW8YMCF7k5WIT-27" style="edgeStyle=orthogonalEdgeStyle;rounded=1;orthogonalLoop=1;jettySize=auto;html=1;entryX=0;entryY=0.5;entryDx=0;entryDy=0;labelBackgroundColor=none;strokeColor=#E07A5F;fontColor=default;" parent="WIyWlLk6GJQsqaUBKTNV-1" source="5J3ZqUvZW8YMCF7k5WIT-19" target="TfA8qvyjhMoh7MB1J778-11" edge="1">
          <mxGeometry relative="1" as="geometry" />
        </mxCell>
        <mxCell id="5J3ZqUvZW8YMCF7k5WIT-33" style="edgeStyle=orthogonalEdgeStyle;rounded=1;orthogonalLoop=1;jettySize=auto;html=1;entryX=1.007;entryY=0.862;entryDx=0;entryDy=0;entryPerimeter=0;labelBackgroundColor=none;strokeColor=#E07A5F;fontColor=default;" parent="WIyWlLk6GJQsqaUBKTNV-1" source="TfA8qvyjhMoh7MB1J778-23" edge="1">
          <mxGeometry relative="1" as="geometry">
            <mxPoint x="524.26" y="254.67000000000002" as="sourcePoint" />
            <mxPoint x="469.9999999999998" y="-149.91799999999995" as="targetPoint" />
            <Array as="points">
              <mxPoint x="514.26" y="254.67000000000002" />
              <mxPoint x="514.26" y="-150.32999999999998" />
            </Array>
          </mxGeometry>
        </mxCell>
        <mxCell id="5J3ZqUvZW8YMCF7k5WIT-47" style="edgeStyle=orthogonalEdgeStyle;rounded=1;orthogonalLoop=1;jettySize=auto;html=1;exitX=0;exitY=0.5;exitDx=0;exitDy=0;entryX=1.001;entryY=0.189;entryDx=0;entryDy=0;entryPerimeter=0;labelBackgroundColor=none;strokeColor=#E07A5F;fontColor=default;" parent="WIyWlLk6GJQsqaUBKTNV-1" source="8uALSgamqrS27bfwQgdc-10" target="zhhEzy5p5cOylJhgr8vr-0" edge="1">
          <mxGeometry relative="1" as="geometry">
            <mxPoint x="208" y="410" as="targetPoint" />
            <Array as="points">
              <mxPoint x="263" y="239" />
              <mxPoint x="263" y="410" />
            </Array>
          </mxGeometry>
        </mxCell>
        <mxCell id="5J3ZqUvZW8YMCF7k5WIT-55" value="" style="edgeStyle=orthogonalEdgeStyle;rounded=1;orthogonalLoop=1;jettySize=auto;html=1;entryX=1;entryY=0.5;entryDx=0;entryDy=0;labelBackgroundColor=none;strokeColor=#E07A5F;fontColor=default;exitX=0.999;exitY=0.759;exitDx=0;exitDy=0;exitPerimeter=0;" parent="WIyWlLk6GJQsqaUBKTNV-1" source="zkfFHV4jXpPFQw0GAbJ--19" target="TfA8qvyjhMoh7MB1J778-25" edge="1">
          <mxGeometry relative="1" as="geometry">
            <mxPoint x="350" y="700" as="sourcePoint" />
            <mxPoint x="352.00386000000026" y="706.716" as="targetPoint" />
            <Array as="points">
              <mxPoint x="760" y="703" />
              <mxPoint x="760" y="324" />
            </Array>
          </mxGeometry>
        </mxCell>
        <mxCell id="V10LMP8ZxMr598pEJ-7t-9" style="edgeStyle=orthogonalEdgeStyle;rounded=0;orthogonalLoop=1;jettySize=auto;html=1;" edge="1" parent="WIyWlLk6GJQsqaUBKTNV-1" source="pKip1tppJ04PTtZ95Z_z-20" target="V10LMP8ZxMr598pEJ-7t-1">
          <mxGeometry relative="1" as="geometry" />
        </mxCell>
        <mxCell id="V10LMP8ZxMr598pEJ-7t-29" style="edgeStyle=orthogonalEdgeStyle;rounded=1;orthogonalLoop=1;jettySize=auto;html=1;entryX=1.015;entryY=0.827;entryDx=0;entryDy=0;fillColor=#f8cecc;strokeColor=#b85450;entryPerimeter=0;" edge="1" parent="WIyWlLk6GJQsqaUBKTNV-1" source="V10LMP8ZxMr598pEJ-7t-10" target="V10LMP8ZxMr598pEJ-7t-31">
          <mxGeometry relative="1" as="geometry">
            <Array as="points">
              <mxPoint x="740" y="-570" />
              <mxPoint x="740" y="-177" />
            </Array>
          </mxGeometry>
        </mxCell>
        <mxCell id="V10LMP8ZxMr598pEJ-7t-10" value="Rating" style="swimlane;fontStyle=2;align=center;verticalAlign=top;childLayout=stackLayout;horizontal=1;startSize=26;horizontalStack=0;resizeParent=1;resizeLast=0;collapsible=1;marginBottom=0;rounded=1;shadow=0;strokeWidth=1;labelBackgroundColor=none;fillColor=#F2CC8F;strokeColor=#E07A5F;fontColor=#393C56;" vertex="1" parent="WIyWlLk6GJQsqaUBKTNV-1">
          <mxGeometry x="750" y="-700" width="160" height="260" as="geometry">
            <mxRectangle x="-830" y="60" width="160" height="26" as="alternateBounds" />
          </mxGeometry>
        </mxCell>
        <mxCell id="V10LMP8ZxMr598pEJ-7t-11" value="Rate ID" style="text;align=left;verticalAlign=top;spacingLeft=4;spacingRight=4;overflow=hidden;rotatable=0;points=[[0,0.5],[1,0.5]];portConstraint=eastwest;rounded=1;labelBackgroundColor=none;fontColor=#393C56;" vertex="1" parent="V10LMP8ZxMr598pEJ-7t-10">
          <mxGeometry y="26" width="160" height="26" as="geometry" />
        </mxCell>
        <mxCell id="V10LMP8ZxMr598pEJ-7t-12" value="Comment" style="text;align=left;verticalAlign=top;spacingLeft=4;spacingRight=4;overflow=hidden;rotatable=0;points=[[0,0.5],[1,0.5]];portConstraint=eastwest;rounded=1;shadow=0;html=0;labelBackgroundColor=none;fontColor=#393C56;" vertex="1" parent="V10LMP8ZxMr598pEJ-7t-10">
          <mxGeometry y="52" width="160" height="26" as="geometry" />
        </mxCell>
        <mxCell id="V10LMP8ZxMr598pEJ-7t-13" value="Star" style="text;align=left;verticalAlign=top;spacingLeft=4;spacingRight=4;overflow=hidden;rotatable=0;points=[[0,0.5],[1,0.5]];portConstraint=eastwest;rounded=1;shadow=0;html=0;labelBackgroundColor=none;fontColor=#393C56;" vertex="1" parent="V10LMP8ZxMr598pEJ-7t-10">
          <mxGeometry y="78" width="160" height="24" as="geometry" />
        </mxCell>
        <mxCell id="V10LMP8ZxMr598pEJ-7t-14" value="Service ID" style="text;align=left;verticalAlign=top;spacingLeft=4;spacingRight=4;overflow=hidden;rotatable=0;points=[[0,0.5],[1,0.5]];portConstraint=eastwest;rounded=1;shadow=0;html=0;labelBackgroundColor=none;fontColor=#393C56;" vertex="1" parent="V10LMP8ZxMr598pEJ-7t-10">
          <mxGeometry y="102" width="160" height="30" as="geometry" />
        </mxCell>
        <mxCell id="V10LMP8ZxMr598pEJ-7t-15" value="Customer ID" style="text;align=left;verticalAlign=top;spacingLeft=4;spacingRight=4;overflow=hidden;rotatable=0;points=[[0,0.5],[1,0.5]];portConstraint=eastwest;rounded=1;shadow=0;html=0;labelBackgroundColor=none;fontColor=#393C56;" vertex="1" parent="V10LMP8ZxMr598pEJ-7t-10">
          <mxGeometry y="132" width="160" height="30" as="geometry" />
        </mxCell>
        <mxCell id="V10LMP8ZxMr598pEJ-7t-16" value="User ID" style="text;align=left;verticalAlign=top;spacingLeft=4;spacingRight=4;overflow=hidden;rotatable=0;points=[[0,0.5],[1,0.5]];portConstraint=eastwest;rounded=1;shadow=0;html=0;labelBackgroundColor=none;fontColor=#393C56;" vertex="1" parent="V10LMP8ZxMr598pEJ-7t-10">
          <mxGeometry y="162" width="160" height="30" as="geometry" />
        </mxCell>
        <mxCell id="V10LMP8ZxMr598pEJ-7t-27" value="Status" style="text;align=left;verticalAlign=top;spacingLeft=4;spacingRight=4;overflow=hidden;rotatable=0;points=[[0,0.5],[1,0.5]];portConstraint=eastwest;rounded=1;shadow=0;html=0;labelBackgroundColor=none;fontColor=#393C56;" vertex="1" parent="V10LMP8ZxMr598pEJ-7t-10">
          <mxGeometry y="192" width="160" height="30" as="geometry" />
        </mxCell>
        <mxCell id="V10LMP8ZxMr598pEJ-7t-21" value="" style="line;html=1;strokeWidth=1;align=left;verticalAlign=middle;spacingTop=-1;spacingLeft=3;spacingRight=3;rotatable=0;labelPosition=right;points=[];portConstraint=eastwest;rounded=1;labelBackgroundColor=none;fillColor=#F2CC8F;strokeColor=#E07A5F;fontColor=#393C56;" vertex="1" parent="V10LMP8ZxMr598pEJ-7t-10">
          <mxGeometry y="222" width="160" height="8" as="geometry" />
        </mxCell>
      </root>
    </mxGraphModel>
  </diagram>
</mxfile>
